Griffith_Gothic-Bold_Italic.ufo
<glyph name="exclam" format="1">
  <advance width="261"/>
  <unicode hex="0021"/>
  <outline>
    <contour>
      <point x="311" y="720" type="line"/>
      <point x="149" y="221" type="line"/>
      <point x="89" y="221" type="line"/>
      <point x="180" y="720" type="line"/>
    </contour>
    <contour>
      <point x="147" y="58" type="curve" smooth="yes"/>
      <point x="147" y="21"/>
      <point x="119" y="-7"/>
      <point x="82" y="-7" type="curve" smooth="yes"/>
      <point x="44" y="-7"/>
      <point x="16" y="21"/>
      <point x="16" y="58" type="curve" smooth="yes"/>
      <point x="16" y="96"/>
      <point x="44" y="124"/>
      <point x="82" y="124" type="curve" smooth="yes"/>
      <point x="119" y="124"/>
      <point x="147" y="96"/>
    </contour>
  </outline>
</glyph>
<glyph name="quotesingle" format="1">
  <advance width="210"/>
  <unicode hex="0027"/>
  <outline>
    <contour>
      <point x="260" y="720" type="line"/>
      <point x="171" y="473" type="line"/>
      <point x="110" y="473" type="line"/>
      <point x="144" y="720" type="line"/>
    </contour>
  </outline>
</glyph>
<glyph name="parenleft" format="1">
  <advance width="343"/>
  <unicode hex="0028"/>
  <outline>
    <contour>
      <point x="442" y="735" type="line"/>
      <point x="249" y="578"/>
      <point x="163" y="394"/>
      <point x="163" y="204" type="curve" smooth="yes"/>
      <point x="163" y="88"/>
      <point x="183" y="6"/>
      <point x="232" y="-95" type="curve"/>
      <point x="145" y="-95" type="line"/>
      <point x="92" y="-12"/>
      <point x="51" y="94"/>
      <point x="51" y="215" type="curve" smooth="yes"/>
      <point x="51" y="424"/>
      <point x="163" y="608"/>
      <point x="339" y="735" type="curve"/>
    </contour>
  </outline>
</glyph>
<glyph name="parenright" format="1">
  <advance width="343"/>
  <unicode hex="0029"/>
  <outline>
    <contour>
      <point x="317" y="425" type="curve" smooth="yes"/>
      <point x="317" y="216"/>
      <point x="205" y="32"/>
      <point x="29" y="-95" type="curve"/>
      <point x="-74" y="-95" type="line"/>
      <point x="119" y="62"/>
      <point x="205" y="246"/>
      <point x="205" y="436" type="curve" smooth="yes"/>
      <point x="205" y="552"/>
      <point x="185" y="634"/>
      <point x="136" y="735" type="curve"/>
      <point x="223" y="735" type="line"/>
      <point x="276" y="652"/>
      <point x="317" y="546"/>
    </contour>
  </outline>
</glyph>
<glyph name="asterisk" format="1">
  <advance width="440"/>
  <unicode hex="002A"/>
  <outline>
    <contour>
      <point x="473" y="554" type="line"/>
      <point x="319" y="533" type="line"/>
      <point x="435" y="426" type="line"/>
      <point x="357" y="369" type="line"/>
      <point x="286" y="515" type="line"/>
      <point x="216" y="369" type="line"/>
      <point x="138" y="426" type="line"/>
      <point x="254" y="533" type="line"/>
      <point x="99" y="554" type="line"/>
      <point x="129" y="645" type="line"/>
      <point x="268" y="566" type="line"/>
      <point x="238" y="720" type="line"/>
      <point x="335" y="720" type="line"/>
      <point x="305" y="566" type="line"/>
      <point x="443" y="645" type="line"/>
    </contour>
  </outline>
</glyph>
<glyph name="plus" format="1">
  <advance width="600"/>
  <unicode hex="002B"/>
  <outline>
    <contour>
      <point x="582" y="309" type="line"/>
      <point x="370" y="309" type="line"/>
      <point x="370" y="97" type="line"/>
      <point x="277" y="97" type="line"/>
      <point x="277" y="309" type="line"/>
      <point x="65" y="309" type="line"/>
      <point x="65" y="401" type="line"/>
      <point x="277" y="401" type="line"/>
      <point x="277" y="613" type="line"/>
      <point x="370" y="613" type="line"/>
      <point x="370" y="401" type="line"/>
      <point x="582" y="401" type="line"/>
    </contour>
  </outline>
</glyph>
<glyph name="hyphen" format="1">
  <advance width="323"/>
  <unicode hex="002D"/>
  <unicode hex="2010"/>
  <unicode hex="2011"/>
  <outline>
    <contour>
      <point x="304" y="332" type="line"/>
      <point x="280" y="237" type="line"/>
      <point x="29" y="237" type="line"/>
      <point x="53" y="332" type="line"/>
    </contour>
  </outline>
</glyph>
<glyph name="period" format="1">
  <advance width="210"/>
  <unicode hex="002E"/>
  <outline>
    <contour>
      <point x="124" y="61" type="curve" smooth="yes"/>
      <point x="124" y="22"/>
      <point x="95" y="-7"/>
      <point x="57" y="-7" type="curve" smooth="yes"/>
      <point x="18" y="-7"/>
      <point x="-11" y="22"/>
      <point x="-11" y="61" type="curve" smooth="yes"/>
      <point x="-11" y="99"/>
      <point x="18" y="128"/>
      <point x="57" y="128" type="curve" smooth="yes"/>
      <point x="95" y="128"/>
      <point x="124" y="99"/>
    </contour>
  </outline>
</glyph>
<glyph name="slash" format="1">
  <advance width="408"/>
  <unicode hex="002F"/>
  <outline>
    <contour>
      <point x="511" y="735" type="line"/>
      <point x="2" y="-95" type="line"/>
      <point x="-105" y="-95" type="line"/>
      <point x="405" y="735" type="line"/>
    </contour>
  </outline>
</glyph>
<glyph name="zero" format="1">
  <advance width="604"/>
  <unicode hex="0030"/>
  <outline>
    <contour>
      <point x="598" y="494" type="line" smooth="yes"/>
      <point x="598" y="447"/>
      <point x="590" y="386"/>
      <point x="580" y="341" type="curve" smooth="yes"/>
      <point x="529" y="119"/>
      <point x="413" y="-12"/>
      <point x="257" y="-12" type="curve" smooth="yes"/>
      <point x="130" y="-12"/>
      <point x="54" y="77"/>
      <point x="54" y="222" type="curve" smooth="yes"/>
      <point x="54" y="226" type="line" smooth="yes"/>
      <point x="54" y="273"/>
      <point x="61" y="334"/>
      <point x="71" y="379" type="curve" smooth="yes"/>
      <point x="122" y="601"/>
      <point x="239" y="732"/>
      <point x="395" y="732" type="curve" smooth="yes"/>
      <point x="522" y="732"/>
      <point x="598" y="643"/>
      <point x="598" y="498" type="curve" smooth="yes"/>
    </contour>
    <contour>
      <point x="486" y="499" type="curve" smooth="yes"/>
      <point x="486" y="501" type="line" smooth="yes"/>
      <point x="486" y="587"/>
      <point x="455" y="644"/>
      <point x="385" y="644" type="curve" smooth="yes"/>
      <point x="301" y="644"/>
      <point x="234" y="550"/>
      <point x="192" y="397" type="curve" smooth="yes"/>
      <point x="175" y="333"/>
      <point x="166" y="270"/>
      <point x="166" y="221" type="curve" smooth="yes"/>
      <point x="166" y="219" type="line" smooth="yes"/>
      <point x="166" y="133"/>
      <point x="197" y="76"/>
      <point x="266" y="76" type="curve" smooth="yes"/>
      <point x="350" y="76"/>
      <point x="418" y="170"/>
      <point x="460" y="323" type="curve" smooth="yes"/>
      <point x="478" y="387"/>
      <point x="486" y="450"/>
    </contour>
  </outline>
</glyph>
<glyph name="one" format="1">
  <advance width="446"/>
  <unicode hex="0031"/>
  <outline>
    <contour>
      <point x="407" y="720" type="line"/>
      <point x="246" y="72" type="line"/>
      <point x="378" y="72" type="line"/>
      <point x="360" y="0" type="line"/>
      <point x="-19" y="0" type="line"/>
      <point x="-1" y="72" type="line"/>
      <point x="134" y="72" type="line"/>
      <point x="278" y="648" type="line"/>
      <point x="131" y="648" type="line"/>
      <point x="149" y="720" type="line"/>
    </contour>
  </outline>
</glyph>
<glyph name="two" format="1">
  <advance width="556"/>
  <unicode hex="0032"/>
  <outline>
    <contour>
      <point x="567" y="562" type="curve" smooth="yes"/>
      <point x="567" y="443"/>
      <point x="492" y="369"/>
      <point x="339" y="282" type="curve" smooth="yes"/>
      <point x="222" y="215"/>
      <point x="156" y="154"/>
      <point x="123" y="83" type="curve"/>
      <point x="468" y="83" type="line"/>
      <point x="448" y="0" type="line"/>
      <point x="-12" y="0" type="line"/>
      <point x="4" y="70" type="line"/>
      <point x="59" y="180"/>
      <point x="139" y="261"/>
      <point x="284" y="346" type="curve" smooth="yes"/>
      <point x="402" y="415"/>
      <point x="458" y="470"/>
      <point x="458" y="552" type="curve" smooth="yes"/>
      <point x="458" y="608"/>
      <point x="425" y="648"/>
      <point x="360" y="648" type="curve" smooth="yes"/>
      <point x="300" y="648"/>
      <point x="248" y="611"/>
      <point x="188" y="533" type="curve"/>
      <point x="109" y="582" type="line"/>
      <point x="184" y="679"/>
      <point x="264" y="732"/>
      <point x="377" y="732" type="curve" smooth="yes"/>
      <point x="497" y="732"/>
      <point x="567" y="663"/>
    </contour>
  </outline>
</glyph>
<glyph name="three" format="1">
  <advance width="529"/>
  <unicode hex="0033"/>
  <outline>
    <contour>
      <point x="530" y="591" type="curve" smooth="yes"/>
      <point x="530" y="500"/>
      <point x="462" y="445"/>
      <point x="330" y="400" type="curve"/>
      <point x="332" y="396" type="line"/>
      <point x="429" y="392"/>
      <point x="495" y="349"/>
      <point x="495" y="252" type="curve" smooth="yes"/>
      <point x="495" y="95"/>
      <point x="309" y="-5"/>
      <point x="63" y="-5" type="curve" smooth="yes"/>
      <point x="26" y="-5"/>
      <point x="-5" y="-3"/>
      <point x="-42" y="1" type="curve"/>
      <point x="-26" y="80" type="line"/>
      <point x="5" y="78"/>
      <point x="25" y="76"/>
      <point x="56" y="76" type="curve" smooth="yes"/>
      <point x="245" y="76"/>
      <point x="382" y="141"/>
      <point x="382" y="250" type="curve" smooth="yes"/>
      <point x="382" y="317"/>
      <point x="336" y="345"/>
      <point x="268" y="345" type="curve" smooth="yes"/>
      <point x="243" y="345"/>
      <point x="218" y="342"/>
      <point x="191" y="337" type="curve"/>
      <point x="181" y="406" type="line"/>
      <point x="371" y="458"/>
      <point x="420" y="507"/>
      <point x="420" y="575" type="curve" smooth="yes"/>
      <point x="420" y="622"/>
      <point x="390" y="650"/>
      <point x="335" y="650" type="curve" smooth="yes"/>
      <point x="279" y="650"/>
      <point x="225" y="627"/>
      <point x="163" y="580" type="curve"/>
      <point x="117" y="639" type="line"/>
      <point x="193" y="698"/>
      <point x="270" y="732"/>
      <point x="357" y="732" type="curve" smooth="yes"/>
      <point x="467" y="732"/>
      <point x="530" y="678"/>
    </contour>
  </outline>
</glyph>
<glyph name="five" format="1">
  <advance width="551"/>
  <unicode hex="0035"/>
  <outline>
    <contour>
      <point x="571" y="720" type="line"/>
      <point x="552" y="631" type="line"/>
      <point x="255" y="631" type="line"/>
      <point x="183" y="404" type="line"/>
      <point x="191" y="404" type="line"/>
      <point x="237" y="444"/>
      <point x="279" y="467"/>
      <point x="341" y="467" type="curve" smooth="yes"/>
      <point x="447" y="467"/>
      <point x="516" y="400"/>
      <point x="516" y="283" type="curve" smooth="yes"/>
      <point x="516" y="280" type="line" smooth="yes"/>
      <point x="516" y="106"/>
      <point x="392" y="-10"/>
      <point x="211" y="-10" type="curve" smooth="yes"/>
      <point x="116" y="-10"/>
      <point x="48" y="12"/>
      <point x="-23" y="53" type="curve"/>
      <point x="24" y="132" type="line"/>
      <point x="83" y="96"/>
      <point x="143" y="76"/>
      <point x="210" y="76" type="curve" smooth="yes"/>
      <point x="323" y="76"/>
      <point x="403" y="156"/>
      <point x="403" y="267" type="curve" smooth="yes"/>
      <point x="403" y="269" type="line" smooth="yes"/>
      <point x="403" y="348"/>
      <point x="360" y="386"/>
      <point x="298" y="386" type="curve" smooth="yes"/>
      <point x="246" y="386"/>
      <point x="215" y="365"/>
      <point x="171" y="330" type="curve"/>
      <point x="81" y="330" type="line"/>
      <point x="199" y="720" type="line"/>
    </contour>
  </outline>
</glyph>
<glyph name="six" format="1">
  <advance width="574"/>
  <unicode hex="0036"/>
  <outline>
    <contour>
      <point x="553" y="720" type="line"/>
      <point x="364" y="615"/>
      <point x="228" y="485"/>
      <point x="178" y="381" type="curve"/>
      <point x="184" y="381" type="line"/>
      <point x="239" y="431"/>
      <point x="294" y="457"/>
      <point x="365" y="457" type="curve" smooth="yes"/>
      <point x="472" y="457"/>
      <point x="546" y="395"/>
      <point x="546" y="272" type="curve" smooth="yes"/>
      <point x="546" y="118"/>
      <point x="420" y="-12"/>
      <point x="257" y="-12" type="curve" smooth="yes"/>
      <point x="128" y="-12"/>
      <point x="39" y="57"/>
      <point x="39" y="194" type="curve" smooth="yes"/>
      <point x="39" y="406"/>
      <point x="197" y="594"/>
      <point x="395" y="720" type="curve"/>
    </contour>
    <contour>
      <point x="434" y="258" type="curve" smooth="yes"/>
      <point x="434" y="336"/>
      <point x="393" y="380"/>
      <point x="318" y="380" type="curve" smooth="yes"/>
      <point x="225" y="380"/>
      <point x="145" y="297"/>
      <point x="145" y="188" type="curve" smooth="yes"/>
      <point x="145" y="113"/>
      <point x="191" y="66"/>
      <point x="263" y="66" type="curve" smooth="yes"/>
      <point x="358" y="66"/>
      <point x="434" y="154"/>
    </contour>
  </outline>
</glyph>
<glyph name="seven" format="1">
  <advance width="515"/>
  <unicode hex="0037"/>
  <outline>
    <contour>
      <point x="608" y="720" type="line"/>
      <point x="591" y="654" type="line"/>
      <point x="411" y="472"/>
      <point x="250" y="223"/>
      <point x="158" y="0" type="curve"/>
      <point x="39" y="0" type="line"/>
      <point x="126" y="201"/>
      <point x="284" y="447"/>
      <point x="464" y="630" type="curve"/>
      <point x="107" y="630" type="line"/>
      <point x="129" y="720" type="line"/>
    </contour>
  </outline>
</glyph>
<glyph name="nine" format="1">
  <advance width="574"/>
  <unicode hex="0039"/>
  <outline>
    <contour>
      <point x="583" y="526" type="curve" smooth="yes"/>
      <point x="583" y="314"/>
      <point x="425" y="126"/>
      <point x="228" y="0" type="curve"/>
      <point x="70" y="0" type="line"/>
      <point x="258" y="105"/>
      <point x="395" y="235"/>
      <point x="445" y="339" type="curve"/>
      <point x="438" y="339" type="line"/>
      <point x="383" y="289"/>
      <point x="328" y="263"/>
      <point x="258" y="263" type="curve" smooth="yes"/>
      <point x="151" y="263"/>
      <point x="77" y="325"/>
      <point x="77" y="448" type="curve" smooth="yes"/>
      <point x="77" y="602"/>
      <point x="203" y="732"/>
      <point x="365" y="732" type="curve" smooth="yes"/>
      <point x="495" y="732"/>
      <point x="583" y="663"/>
    </contour>
    <contour>
      <point x="478" y="532" type="curve" smooth="yes"/>
      <point x="478" y="607"/>
      <point x="432" y="654"/>
      <point x="359" y="654" type="curve" smooth="yes"/>
      <point x="265" y="654"/>
      <point x="188" y="566"/>
      <point x="188" y="462" type="curve" smooth="yes"/>
      <point x="188" y="384"/>
      <point x="230" y="340"/>
      <point x="304" y="340" type="curve" smooth="yes"/>
      <point x="397" y="340"/>
      <point x="478" y="423"/>
    </contour>
  </outline>
</glyph>
<glyph name="semicolon" format="1">
  <advance width="226"/>
  <unicode hex="003B"/>
  <outline>
    <contour>
      <point x="232" y="462" type="curve" smooth="yes"/>
      <point x="232" y="423"/>
      <point x="204" y="394"/>
      <point x="165" y="394" type="curve" smooth="yes"/>
      <point x="126" y="394"/>
      <point x="97" y="423"/>
      <point x="97" y="462" type="curve" smooth="yes"/>
      <point x="97" y="501"/>
      <point x="126" y="530"/>
      <point x="165" y="530" type="curve" smooth="yes"/>
      <point x="204" y="530"/>
      <point x="232" y="501"/>
    </contour>
    <contour>
      <point x="147" y="130" type="line"/>
      <point x="0" y="-117" type="line"/>
      <point x="-65" y="-117" type="line"/>
      <point x="26" y="130" type="line"/>
    </contour>
  </outline>
</glyph>
<glyph name="less" format="1">
  <advance width="600"/>
  <unicode hex="003C"/>
  <outline>
    <contour>
      <point x="572" y="89" type="line"/>
      <point x="68" y="310" type="line"/>
      <point x="68" y="400" type="line"/>
      <point x="572" y="621" type="line"/>
      <point x="572" y="524" type="line"/>
      <point x="173" y="355" type="line"/>
      <point x="572" y="186" type="line"/>
    </contour>
  </outline>
</glyph>
<glyph name="at" format="1">
  <advance width="978"/>
  <unicode hex="0040"/>
  <outline>
    <contour>
      <point x="938" y="333" type="curve" smooth="yes"/>
      <point x="938" y="149"/>
      <point x="825" y="28"/>
      <point x="701" y="28" type="curve" smooth="yes"/>
      <point x="619" y="28"/>
      <point x="578" y="76"/>
      <point x="570" y="147" type="curve"/>
      <point x="566" y="147" type="line"/>
      <point x="521" y="73"/>
      <point x="463" y="28"/>
      <point x="401" y="28" type="curve" smooth="yes"/>
      <point x="322" y="28"/>
      <point x="273" y="90"/>
      <point x="273" y="196" type="curve" smooth="yes"/>
      <point x="273" y="351"/>
      <point x="349" y="516"/>
      <point x="467" y="516" type="curve" smooth="yes"/>
      <point x="537" y="516"/>
      <point x="573" y="469"/>
      <point x="595" y="404" type="curve"/>
      <point x="599" y="403" type="line"/>
      <point x="618" y="515" type="line"/>
      <point x="713" y="495" type="line"/>
      <point x="659" y="187" type="line" smooth="yes"/>
      <point x="647" y="121"/>
      <point x="668" y="70"/>
      <point x="729" y="70" type="curve" smooth="yes"/>
      <point x="815" y="70"/>
      <point x="897" y="181"/>
      <point x="897" y="331" type="curve" smooth="yes"/>
      <point x="897" y="556"/>
      <point x="738" y="697"/>
      <point x="511" y="697" type="curve" smooth="yes"/>
      <point x="275" y="697"/>
      <point x="92" y="506"/>
      <point x="92" y="266" type="curve" smooth="yes"/>
      <point x="92" y="13"/>
      <point x="255" y="-157"/>
      <point x="502" y="-157" type="curve" smooth="yes"/>
      <point x="623" y="-157"/>
      <point x="709" y="-133"/>
      <point x="798" y="-84" type="curve"/>
      <point x="815" y="-114" type="line"/>
      <point x="722" y="-164"/>
      <point x="630" y="-192"/>
      <point x="500" y="-192" type="curve" smooth="yes"/>
      <point x="230" y="-192"/>
      <point x="50" y="-10"/>
      <point x="50" y="265" type="curve" smooth="yes"/>
      <point x="50" y="529"/>
      <point x="260" y="732"/>
      <point x="514" y="732" type="curve" smooth="yes"/>
      <point x="753" y="732"/>
      <point x="938" y="574"/>
    </contour>
    <contour>
      <point x="583" y="325" type="curve" smooth="yes"/>
      <point x="583" y="388"/>
      <point x="551" y="447"/>
      <point x="499" y="447" type="curve" smooth="yes"/>
      <point x="427" y="447"/>
      <point x="371" y="336"/>
      <point x="371" y="200" type="curve" smooth="yes"/>
      <point x="371" y="133"/>
      <point x="397" y="90"/>
      <point x="445" y="90" type="curve" smooth="yes"/>
      <point x="515" y="90"/>
      <point x="583" y="212"/>
    </contour>
  </outline>
</glyph>
<glyph name="C" format="1">
  <advance width="590"/>
  <unicode hex="0043"/>
  <outline>
    <contour>
      <point x="608" y="496" type="curve"/>
      <point x="497" y="475" type="line"/>
      <point x="502" y="587"/>
      <point x="471" y="644"/>
      <point x="395" y="644" type="curve" smooth="yes"/>
      <point x="302" y="644"/>
      <point x="232" y="534"/>
      <point x="194" y="392" type="curve" smooth="yes"/>
      <point x="176" y="327"/>
      <point x="168" y="274"/>
      <point x="168" y="228" type="curve" smooth="yes"/>
      <point x="168" y="225" type="line" smooth="yes"/>
      <point x="168" y="141"/>
      <point x="203" y="76"/>
      <point x="279" y="76" type="curve" smooth="yes"/>
      <point x="349" y="76"/>
      <point x="398" y="129"/>
      <point x="442" y="232" type="curve"/>
      <point x="543" y="200" type="line"/>
      <point x="480" y="59"/>
      <point x="398" y="-12"/>
      <point x="269" y="-12" type="curve" smooth="yes"/>
      <point x="135" y="-12"/>
      <point x="54" y="78"/>
      <point x="54" y="228" type="curve" smooth="yes"/>
      <point x="54" y="232" type="line" smooth="yes"/>
      <point x="54" y="273"/>
      <point x="60" y="323"/>
      <point x="71" y="372" type="curve" smooth="yes"/>
      <point x="118" y="585"/>
      <point x="232" y="732"/>
      <point x="404" y="732" type="curve" smooth="yes"/>
      <point x="551" y="732"/>
      <point x="616" y="641"/>
    </contour>
  </outline>
</glyph>
<glyph name="D" format="1">
  <advance width="626"/>
  <unicode hex="0044"/>
  <outline>
    <contour>
      <point x="620" y="469" type="line" smooth="yes"/>
      <point x="620" y="428"/>
      <point x="616" y="392"/>
      <point x="606" y="347" type="curve" smooth="yes"/>
      <point x="553" y="118"/>
      <point x="411" y="0"/>
      <point x="209" y="0" type="curve" smooth="yes"/>
      <point x="6" y="0" type="line"/>
      <point x="185" y="720" type="line"/>
      <point x="354" y="720" type="line" smooth="yes"/>
      <point x="515" y="720"/>
      <point x="620" y="641"/>
      <point x="620" y="472" type="curve" smooth="yes"/>
    </contour>
    <contour>
      <point x="502" y="462" type="curve" smooth="yes"/>
      <point x="502" y="466" type="line" smooth="yes"/>
      <point x="502" y="575"/>
      <point x="438" y="632"/>
      <point x="339" y="632" type="curve" smooth="yes"/>
      <point x="276" y="632" type="line"/>
      <point x="140" y="88" type="line"/>
      <point x="222" y="88" type="line" smooth="yes"/>
      <point x="343" y="88"/>
      <point x="437" y="157"/>
      <point x="486" y="340" type="curve" smooth="yes"/>
      <point x="496" y="378"/>
      <point x="502" y="423"/>
    </contour>
  </outline>
</glyph>
<glyph name="I" format="1">
  <advance width="411"/>
  <unicode hex="0049"/>
  <outline>
    <contour>
      <point x="477" y="720" type="line"/>
      <point x="465" y="671" type="line"/>
      <point x="364" y="671" type="line"/>
      <point x="209" y="49" type="line"/>
      <point x="310" y="49" type="line"/>
      <point x="297" y="0" type="line"/>
      <point x="-18" y="0" type="line"/>
      <point x="-5" y="49" type="line"/>
      <point x="95" y="49" type="line"/>
      <point x="250" y="671" type="line"/>
      <point x="150" y="671" type="line"/>
      <point x="162" y="720" type="line"/>
    </contour>
  </outline>
</glyph>
<glyph name="K" format="1">
  <advance width="616"/>
  <unicode hex="004B"/>
  <outline>
    <contour>
      <point x="715" y="720" type="line"/>
      <point x="363" y="388" type="line"/>
      <point x="551" y="0" type="line"/>
      <point x="428" y="0" type="line"/>
      <point x="243" y="390" type="line"/>
      <point x="243" y="394" type="line"/>
      <point x="583" y="720" type="line"/>
    </contour>
    <contour>
      <point x="300" y="720" type="line"/>
      <point x="120" y="0" type="line"/>
      <point x="6" y="0" type="line"/>
      <point x="185" y="720" type="line"/>
    </contour>
  </outline>
</glyph>
<glyph name="L" format="1">
  <advance width="515"/>
  <unicode hex="004C"/>
  <outline>
    <contour>
      <point x="455" y="95" type="line"/>
      <point x="432" y="0" type="line"/>
      <point x="6" y="0" type="line"/>
      <point x="185" y="720" type="line"/>
      <point x="300" y="720" type="line"/>
      <point x="144" y="95" type="line"/>
    </contour>
  </outline>
</glyph>
<glyph name="N" format="1">
  <advance width="645"/>
  <unicode hex="004E"/>
  <outline>
    <contour>
      <point x="687" y="720" type="line"/>
      <point x="507" y="0" type="line"/>
      <point x="394" y="0" type="line"/>
      <point x="256" y="553" type="line"/>
      <point x="249" y="553" type="line"/>
      <point x="112" y="0" type="line"/>
      <point x="6" y="0" type="line"/>
      <point x="185" y="720" type="line"/>
      <point x="309" y="720" type="line"/>
      <point x="442" y="187" type="line"/>
      <point x="448" y="187" type="line"/>
      <point x="581" y="720" type="line"/>
    </contour>
  </outline>
</glyph>
<glyph name="O" format="1">
  <advance width="627"/>
  <unicode hex="004F"/>
  <outline>
    <contour>
      <point x="622" y="488" type="line" smooth="yes"/>
      <point x="622" y="444"/>
      <point x="615" y="390"/>
      <point x="604" y="342" type="curve" smooth="yes"/>
      <point x="557" y="132"/>
      <point x="444" y="-12"/>
      <point x="271" y="-12" type="curve" smooth="yes"/>
      <point x="136" y="-12"/>
      <point x="54" y="78"/>
      <point x="54" y="228" type="curve" smooth="yes"/>
      <point x="54" y="232" type="line" smooth="yes"/>
      <point x="54" y="276"/>
      <point x="61" y="330"/>
      <point x="72" y="378" type="curve" smooth="yes"/>
      <point x="119" y="588"/>
      <point x="232" y="732"/>
      <point x="405" y="732" type="curve" smooth="yes"/>
      <point x="540" y="732"/>
      <point x="622" y="642"/>
      <point x="622" y="492" type="curve" smooth="yes"/>
    </contour>
    <contour>
      <point x="507" y="491" type="curve" smooth="yes"/>
      <point x="507" y="494" type="line" smooth="yes"/>
      <point x="507" y="578"/>
      <point x="472" y="644"/>
      <point x="395" y="644" type="curve" smooth="yes"/>
      <point x="304" y="644"/>
      <point x="234" y="542"/>
      <point x="194" y="396" type="curve" smooth="yes"/>
      <point x="177" y="332"/>
      <point x="168" y="274"/>
      <point x="168" y="229" type="curve" smooth="yes"/>
      <point x="168" y="226" type="line" smooth="yes"/>
      <point x="168" y="142"/>
      <point x="203" y="76"/>
      <point x="280" y="76" type="curve" smooth="yes"/>
      <point x="372" y="76"/>
      <point x="441" y="178"/>
      <point x="481" y="324" type="curve" smooth="yes"/>
      <point x="498" y="388"/>
      <point x="507" y="446"/>
    </contour>
  </outline>
</glyph>
<glyph name="R" format="1">
  <advance width="605"/>
  <unicode hex="0052"/>
  <outline>
    <contour>
      <point x="616" y="546" type="curve" smooth="yes"/>
      <point x="616" y="422"/>
      <point x="527" y="341"/>
      <point x="398" y="320" type="curve"/>
      <point x="521" y="0" type="line"/>
      <point x="400" y="0" type="line"/>
      <point x="287" y="305" type="line"/>
      <point x="196" y="305" type="line"/>
      <point x="120" y="0" type="line"/>
      <point x="6" y="0" type="line"/>
      <point x="185" y="720" type="line"/>
      <point x="395" y="720" type="line" smooth="yes"/>
      <point x="539" y="720"/>
      <point x="616" y="661"/>
    </contour>
    <contour>
      <point x="503" y="536" type="curve" smooth="yes"/>
      <point x="503" y="604"/>
      <point x="461" y="637"/>
      <point x="373" y="637" type="curve" smooth="yes"/>
      <point x="275" y="637" type="line"/>
      <point x="212" y="384" type="line"/>
      <point x="318" y="384" type="line" smooth="yes"/>
      <point x="430" y="384"/>
      <point x="503" y="438"/>
    </contour>
  </outline>
</glyph>
<glyph name="S" format="1">
  <advance width="573"/>
  <unicode hex="0053"/>
  <outline>
    <contour>
      <point x="597" y="585" type="curve"/>
      <point x="508" y="531" type="line"/>
      <point x="480" y="602"/>
      <point x="432" y="645"/>
      <point x="354" y="645" type="curve" smooth="yes"/>
      <point x="276" y="645"/>
      <point x="233" y="596"/>
      <point x="233" y="541" type="curve" smooth="yes"/>
      <point x="233" y="489"/>
      <point x="256" y="459"/>
      <point x="355" y="412" type="curve" smooth="yes"/>
      <point x="474" y="355"/>
      <point x="519" y="301"/>
      <point x="519" y="209" type="curve" smooth="yes"/>
      <point x="519" y="74"/>
      <point x="409" y="-11"/>
      <point x="268" y="-11" type="curve" smooth="yes"/>
      <point x="126" y="-11"/>
      <point x="34" y="51"/>
      <point x="2" y="155" type="curve"/>
      <point x="90" y="212" type="line"/>
      <point x="113" y="123"/>
      <point x="180" y="75"/>
      <point x="275" y="75" type="curve" smooth="yes"/>
      <point x="360" y="75"/>
      <point x="409" y="129"/>
      <point x="409" y="195" type="curve" smooth="yes"/>
      <point x="409" y="246"/>
      <point x="389" y="280"/>
      <point x="289" y="326" type="curve" smooth="yes"/>
      <point x="172" y="381"/>
      <point x="122" y="432"/>
      <point x="122" y="526" type="curve" smooth="yes"/>
      <point x="122" y="646"/>
      <point x="225" y="731"/>
      <point x="362" y="731" type="curve" smooth="yes"/>
      <point x="488" y="731"/>
      <point x="563" y="675"/>
    </contour>
  </outline>
</glyph>
<glyph name="Z" format="1">
  <advance width="553"/>
  <unicode hex="005A"/>
  <outline>
    <contour>
      <point x="634" y="720" type="line"/>
      <point x="614" y="642" type="line"/>
      <point x="121" y="89" type="line"/>
      <point x="476" y="89" type="line"/>
      <point x="454" y="0" type="line"/>
      <point x="-32" y="0" type="line"/>
      <point x="-12" y="78" type="line"/>
      <point x="481" y="631" type="line"/>
      <point x="143" y="631" type="line"/>
      <point x="166" y="720" type="line"/>
    </contour>
  </outline>
</glyph>
<glyph name="bracketleft" format="1">
  <advance width="363"/>
  <unicode hex="005B"/>
  <outline>
    <contour>
      <point x="454" y="720" type="line"/>
      <point x="441" y="670" type="line"/>
      <point x="269" y="677" type="line"/>
      <point x="92" y="-37" type="line"/>
      <point x="266" y="-30" type="line"/>
      <point x="254" y="-80" type="line"/>
      <point x="-23" y="-89" type="line"/>
      <point x="180" y="729" type="line"/>
    </contour>
  </outline>
</glyph>
<glyph name="backslash" format="1">
  <advance width="408"/>
  <unicode hex="005C"/>
  <outline>
    <contour>
      <point x="335" y="-95" type="line"/>
      <point x="241" y="-95" type="line"/>
      <point x="131" y="735" type="line"/>
      <point x="225" y="735" type="line"/>
    </contour>
  </outline>
</glyph>
<glyph name="bracketright" format="1">
  <advance width="363"/>
  <unicode hex="005D"/>
  <outline>
    <contour>
      <point x="415" y="729" type="line"/>
      <point x="212" y="-89" type="line"/>
      <point x="-62" y="-80" type="line"/>
      <point x="-49" y="-30" type="line"/>
      <point x="123" y="-37" type="line"/>
      <point x="300" y="677" type="line"/>
      <point x="126" y="670" type="line"/>
      <point x="138" y="720" type="line"/>
    </contour>
  </outline>
</glyph>
<glyph name="asciicircum" format="1">
  <advance width="550"/>
  <unicode hex="005E"/>
  <outline>
    <contour>
      <point x="544" y="407" type="line"/>
      <point x="475" y="407" type="line"/>
      <point x="368" y="630" type="line"/>
      <point x="150" y="407" type="line"/>
      <point x="75" y="407" type="line"/>
      <point x="337" y="725" type="line"/>
      <point x="440" y="725" type="line"/>
    </contour>
  </outline>
</glyph>
<glyph name="underscore" format="1">
  <advance width="500"/>
  <unicode hex="005F"/>
  <outline>
    <contour>
      <point x="427" y="-40" type="line"/>
      <point x="414" y="-93" type="line"/>
      <point x="-92" y="-93" type="line"/>
      <point x="-79" y="-40" type="line"/>
    </contour>
  </outline>
</glyph>
<glyph name="grave" format="1">
  <advance width="500"/>
  <unicode hex="0060"/>
  <outline>
    <contour>
      <point x="422" y="592" type="line"/>
      <point x="356" y="592" type="line"/>
      <point x="246" y="743" type="line"/>
      <point x="369" y="743" type="line"/>
    </contour>
  </outline>
</glyph>
<glyph name="c" format="1">
  <advance width="462"/>
  <unicode hex="0063"/>
  <outline>
    <contour>
      <point x="462" y="374" type="curve"/>
      <point x="362" y="359" type="line"/>
      <point x="359" y="426"/>
      <point x="343" y="463"/>
      <point x="293" y="463" type="curve" smooth="yes"/>
      <point x="225" y="463"/>
      <point x="178" y="388"/>
      <point x="149" y="280" type="curve" smooth="yes"/>
      <point x="137" y="238"/>
      <point x="132" y="200"/>
      <point x="132" y="165" type="curve" smooth="yes"/>
      <point x="132" y="163" type="line" smooth="yes"/>
      <point x="132" y="95"/>
      <point x="164" y="61"/>
      <point x="211" y="61" type="curve" smooth="yes"/>
      <point x="252" y="61"/>
      <point x="286" y="92"/>
      <point x="323" y="152" type="curve"/>
      <point x="410" y="121" type="line"/>
      <point x="361" y="40"/>
      <point x="297" y="-10"/>
      <point x="203" y="-10" type="curve" smooth="yes"/>
      <point x="98" y="-10"/>
      <point x="27" y="53"/>
      <point x="27" y="174" type="curve" smooth="yes"/>
      <point x="27" y="176" type="line" smooth="yes"/>
      <point x="27" y="208"/>
      <point x="33" y="248"/>
      <point x="42" y="285" type="curve" smooth="yes"/>
      <point x="78" y="429"/>
      <point x="164" y="534"/>
      <point x="303" y="534" type="curve" smooth="yes"/>
      <point x="414" y="534"/>
      <point x="458" y="470"/>
    </contour>
  </outline>
</glyph>
<glyph name="i" format="1">
  <advance width="242"/>
  <unicode hex="0069"/>
  <outline>
    <contour>
      <point x="297" y="724" type="line"/>
      <point x="272" y="624" type="line"/>
      <point x="151" y="624" type="line"/>
      <point x="176" y="724" type="line"/>
    </contour>
    <contour>
      <point x="240" y="524" type="line"/>
      <point x="110" y="0" type="line"/>
      <point x="2" y="0" type="line"/>
      <point x="133" y="524" type="line"/>
    </contour>
  </outline>
</glyph>
<glyph name="j" format="1">
  <advance width="242"/>
  <unicode hex="006A"/>
  <outline>
    <contour>
      <point x="297" y="724" type="line"/>
      <point x="272" y="624" type="line"/>
      <point x="151" y="624" type="line"/>
      <point x="176" y="724" type="line"/>
    </contour>
    <contour>
      <point x="240" y="524" type="line"/>
      <point x="94" y="-62" type="line" smooth="yes"/>
      <point x="70" y="-160"/>
      <point x="13" y="-190"/>
      <point x="-67" y="-190" type="curve" smooth="yes"/>
      <point x="-104" y="-190"/>
      <point x="-133" y="-184"/>
      <point x="-159" y="-174" type="curve"/>
      <point x="-142" y="-106" type="line"/>
      <point x="-124" y="-115"/>
      <point x="-106" y="-119"/>
      <point x="-86" y="-119" type="curve" smooth="yes"/>
      <point x="-45" y="-119"/>
      <point x="-22" y="-99"/>
      <point x="-10" y="-50" type="curve" smooth="yes"/>
      <point x="133" y="524" type="line"/>
    </contour>
  </outline>
</glyph>
<glyph name="k" format="1">
  <advance width="496"/>
  <unicode hex="006B"/>
  <outline>
    <contour>
      <point x="549" y="524" type="line"/>
      <point x="293" y="266" type="line"/>
      <point x="427" y="0" type="line"/>
      <point x="312" y="0" type="line"/>
      <point x="186" y="267" type="line"/>
      <point x="186" y="272" type="line"/>
      <point x="429" y="524" type="line"/>
    </contour>
    <contour>
      <point x="291" y="759" type="line"/>
      <point x="102" y="0" type="line"/>
      <point x="-5" y="0" type="line"/>
      <point x="178" y="736" type="line"/>
    </contour>
  </outline>
</glyph>
<glyph name="l" format="1">
  <advance width="241"/>
  <unicode hex="006C"/>
  <outline>
    <contour>
      <point x="298" y="759" type="line"/>
      <point x="109" y="0" type="line"/>
      <point x="2" y="0" type="line"/>
      <point x="186" y="736" type="line"/>
    </contour>
  </outline>
</glyph>
<glyph name="m" format="1">
  <advance width="798"/>
  <unicode hex="006D"/>
  <outline>
    <contour>
      <point x="779" y="437" type="curve" smooth="yes"/>
      <point x="779" y="419"/>
      <point x="776" y="396"/>
      <point x="770" y="372" type="curve" smooth="yes"/>
      <point x="677" y="0" type="line"/>
      <point x="570" y="0" type="line"/>
      <point x="657" y="349" type="line" smooth="yes"/>
      <point x="661" y="366"/>
      <point x="664" y="385"/>
      <point x="664" y="398" type="curve" smooth="yes"/>
      <point x="664" y="430"/>
      <point x="649" y="449"/>
      <point x="614" y="449" type="curve" smooth="yes"/>
      <point x="578" y="449"/>
      <point x="534" y="417"/>
      <point x="474" y="340" type="curve"/>
      <point x="390" y="0" type="line"/>
      <point x="283" y="0" type="line"/>
      <point x="370" y="349" type="line" smooth="yes"/>
      <point x="374" y="366"/>
      <point x="377" y="385"/>
      <point x="377" y="398" type="curve" smooth="yes"/>
      <point x="377" y="430"/>
      <point x="362" y="449"/>
      <point x="327" y="449" type="curve" smooth="yes"/>
      <point x="291" y="449"/>
      <point x="247" y="416"/>
      <point x="187" y="340" type="curve"/>
      <point x="102" y="0" type="line"/>
      <point x="-5" y="0" type="line"/>
      <point x="122" y="510" type="line"/>
      <point x="235" y="533" type="line"/>
      <point x="201" y="396" type="line"/>
      <point x="206" y="396" type="line"/>
      <point x="279" y="485"/>
      <point x="331" y="530"/>
      <point x="397" y="530" type="curve" smooth="yes"/>
      <point x="460" y="530"/>
      <point x="492" y="494"/>
      <point x="492" y="437" type="curve" smooth="yes"/>
      <point x="492" y="426"/>
      <point x="490" y="411"/>
      <point x="486" y="396" type="curve"/>
      <point x="493" y="396" type="line"/>
      <point x="566" y="485"/>
      <point x="619" y="530"/>
      <point x="685" y="530" type="curve" smooth="yes"/>
      <point x="748" y="530"/>
      <point x="779" y="494"/>
    </contour>
  </outline>
</glyph>
<glyph name="n" format="1">
  <advance width="513"/>
  <unicode hex="006E"/>
  <outline>
    <contour>
      <point x="494" y="437" type="curve" smooth="yes"/>
      <point x="494" y="419"/>
      <point x="490" y="396"/>
      <point x="484" y="372" type="curve" smooth="yes"/>
      <point x="392" y="0" type="line"/>
      <point x="285" y="0" type="line"/>
      <point x="372" y="349" type="line" smooth="yes"/>
      <point x="376" y="366"/>
      <point x="379" y="385"/>
      <point x="379" y="398" type="curve" smooth="yes"/>
      <point x="379" y="430"/>
      <point x="363" y="449"/>
      <point x="328" y="449" type="curve" smooth="yes"/>
      <point x="292" y="449"/>
      <point x="247" y="416"/>
      <point x="187" y="340" type="curve"/>
      <point x="102" y="0" type="line"/>
      <point x="-5" y="0" type="line"/>
      <point x="122" y="510" type="line"/>
      <point x="235" y="533" type="line"/>
      <point x="201" y="396" type="line"/>
      <point x="206" y="396" type="line"/>
      <point x="279" y="485"/>
      <point x="333" y="530"/>
      <point x="399" y="530" type="curve" smooth="yes"/>
      <point x="462" y="530"/>
      <point x="494" y="494"/>
    </contour>
  </outline>
</glyph>
<glyph name="o" format="1">
  <advance width="503"/>
  <unicode hex="006F"/>
  <outline>
    <contour>
      <point x="476" y="349" type="line" smooth="yes"/>
      <point x="476" y="317"/>
      <point x="471" y="279"/>
      <point x="462" y="242" type="curve" smooth="yes"/>
      <point x="426" y="97"/>
      <point x="338" y="-10"/>
      <point x="202" y="-10" type="curve" smooth="yes"/>
      <point x="95" y="-10"/>
      <point x="27" y="53"/>
      <point x="27" y="174" type="curve" smooth="yes"/>
      <point x="27" y="176" type="line" smooth="yes"/>
      <point x="27" y="207"/>
      <point x="32" y="246"/>
      <point x="41" y="282" type="curve" smooth="yes"/>
      <point x="76" y="427"/>
      <point x="165" y="534"/>
      <point x="301" y="534" type="curve" smooth="yes"/>
      <point x="408" y="534"/>
      <point x="476" y="471"/>
      <point x="476" y="351" type="curve" smooth="yes"/>
    </contour>
    <contour>
      <point x="372" y="361" type="curve" smooth="yes"/>
      <point x="372" y="363" type="line" smooth="yes"/>
      <point x="372" y="435"/>
      <point x="343" y="467"/>
      <point x="295" y="467" type="curve" smooth="yes"/>
      <point x="225" y="467"/>
      <point x="176" y="388"/>
      <point x="149" y="279" type="curve" smooth="yes"/>
      <point x="137" y="232"/>
      <point x="131" y="195"/>
      <point x="131" y="164" type="curve" smooth="yes"/>
      <point x="131" y="162" type="line" smooth="yes"/>
      <point x="131" y="90"/>
      <point x="160" y="57"/>
      <point x="208" y="57" type="curve" smooth="yes"/>
      <point x="278" y="57"/>
      <point x="327" y="137"/>
      <point x="354" y="245" type="curve" smooth="yes"/>
      <point x="366" y="292"/>
      <point x="372" y="329"/>
    </contour>
  </outline>
</glyph>
<glyph name="s" format="1">
  <advance width="425"/>
  <unicode hex="0073"/>
  <outline>
    <contour>
      <point x="429" y="456" type="curve"/>
      <point x="365" y="403" type="line"/>
      <point x="329" y="445"/>
      <point x="290" y="466"/>
      <point x="248" y="466" type="curve" smooth="yes"/>
      <point x="198" y="466"/>
      <point x="165" y="435"/>
      <point x="165" y="394" type="curve" smooth="yes"/>
      <point x="165" y="358"/>
      <point x="183" y="336"/>
      <point x="250" y="306" type="curve" smooth="yes"/>
      <point x="337" y="267"/>
      <point x="374" y="226"/>
      <point x="374" y="159" type="curve" smooth="yes"/>
      <point x="374" y="59"/>
      <point x="294" y="-9"/>
      <point x="180" y="-9" type="curve" smooth="yes"/>
      <point x="89" y="-9"/>
      <point x="27" y="24"/>
      <point x="-19" y="76" type="curve"/>
      <point x="41" y="132" type="line"/>
      <point x="80" y="86"/>
      <point x="130" y="58"/>
      <point x="186" y="58" type="curve" smooth="yes"/>
      <point x="243" y="58"/>
      <point x="278" y="92"/>
      <point x="278" y="139" type="curve" smooth="yes"/>
      <point x="278" y="177"/>
      <point x="259" y="196"/>
      <point x="187" y="230" type="curve" smooth="yes"/>
      <point x="106" y="267"/>
      <point x="69" y="308"/>
      <point x="69" y="377" type="curve" smooth="yes"/>
      <point x="69" y="465"/>
      <point x="143" y="534"/>
      <point x="254" y="534" type="curve" smooth="yes"/>
      <point x="332" y="534"/>
      <point x="387" y="504"/>
    </contour>
  </outline>
</glyph>
<glyph name="t" format="1">
  <advance width="384"/>
  <unicode hex="0074"/>
  <outline>
    <contour>
      <point x="407" y="521" type="line"/>
      <point x="388" y="447" type="line"/>
      <point x="257" y="447" type="line"/>
      <point x="184" y="156" type="line" smooth="yes"/>
      <point x="181" y="142"/>
      <point x="178" y="128"/>
      <point x="178" y="117" type="curve" smooth="yes"/>
      <point x="178" y="88"/>
      <point x="198" y="73"/>
      <point x="230" y="73" type="curve" smooth="yes"/>
      <point x="257" y="73"/>
      <point x="283" y="81"/>
      <point x="325" y="100" type="curve"/>
      <point x="303" y="16" type="line"/>
      <point x="258" y="-2"/>
      <point x="223" y="-10"/>
      <point x="178" y="-10" type="curve" smooth="yes"/>
      <point x="107" y="-10"/>
      <point x="67" y="25"/>
      <point x="67" y="84" type="curve" smooth="yes"/>
      <point x="67" y="99"/>
      <point x="70" y="121"/>
      <point x="74" y="139" type="curve" smooth="yes"/>
      <point x="151" y="447" type="line"/>
      <point x="59" y="447" type="line"/>
      <point x="77" y="521" type="line"/>
      <point x="169" y="521" type="line"/>
      <point x="216" y="708" type="line"/>
      <point x="327" y="730" type="line"/>
      <point x="275" y="521" type="line"/>
    </contour>
  </outline>
</glyph>
<glyph name="u" format="1">
  <advance width="513"/>
  <unicode hex="0075"/>
  <outline>
    <contour>
      <point x="517" y="524" type="line"/>
      <point x="390" y="14" type="line"/>
      <point x="278" y="-9" type="line"/>
      <point x="312" y="128" type="line"/>
      <point x="306" y="128" type="line"/>
      <point x="233" y="40"/>
      <point x="180" y="-6"/>
      <point x="114" y="-6" type="curve" smooth="yes"/>
      <point x="51" y="-6"/>
      <point x="19" y="30"/>
      <point x="19" y="88" type="curve" smooth="yes"/>
      <point x="19" y="105"/>
      <point x="22" y="129"/>
      <point x="28" y="152" type="curve" smooth="yes"/>
      <point x="121" y="524" type="line"/>
      <point x="228" y="524" type="line"/>
      <point x="141" y="175" type="line" smooth="yes"/>
      <point x="137" y="158"/>
      <point x="134" y="140"/>
      <point x="134" y="126" type="curve" smooth="yes"/>
      <point x="134" y="94"/>
      <point x="150" y="75"/>
      <point x="185" y="75" type="curve" smooth="yes"/>
      <point x="221" y="75"/>
      <point x="265" y="108"/>
      <point x="326" y="185" type="curve"/>
      <point x="410" y="524" type="line"/>
    </contour>
  </outline>
</glyph>
<glyph name="v" format="1">
  <advance width="493"/>
  <unicode hex="0076"/>
  <outline>
    <contour>
      <point x="539" y="524" type="line"/>
      <point x="238" y="-5" type="line"/>
      <point x="122" y="-5" type="line"/>
      <point x="85" y="524" type="line"/>
      <point x="192" y="524" type="line"/>
      <point x="206" y="105" type="line"/>
      <point x="430" y="524" type="line"/>
    </contour>
  </outline>
</glyph>
<glyph name="x" format="1">
  <advance width="496"/>
  <unicode hex="0078"/>
  <outline>
    <contour>
      <point x="532" y="524" type="line"/>
      <point x="302" y="267" type="line"/>
      <point x="407" y="0" type="line"/>
      <point x="298" y="0" type="line"/>
      <point x="229" y="191" type="line"/>
      <point x="69" y="0" type="line"/>
      <point x="-43" y="0" type="line"/>
      <point x="195" y="266" type="line"/>
      <point x="93" y="524" type="line"/>
      <point x="203" y="524" type="line"/>
      <point x="268" y="342" type="line"/>
      <point x="420" y="524" type="line"/>
    </contour>
  </outline>
</glyph>
<glyph name="y" format="1">
  <advance width="493"/>
  <unicode hex="0079"/>
  <outline>
    <contour>
      <point x="539" y="524" type="line"/>
      <point x="196" y="-77" type="line" smooth="yes"/>
      <point x="144" y="-167"/>
      <point x="97" y="-192"/>
      <point x="26" y="-192" type="curve" smooth="yes"/>
      <point x="-23" y="-192"/>
      <point x="-56" y="-183"/>
      <point x="-87" y="-168" type="curve"/>
      <point x="-69" y="-93" type="line"/>
      <point x="-43" y="-93" type="line"/>
      <point x="-31" y="-119"/>
      <point x="-14" y="-133"/>
      <point x="19" y="-133" type="curve" smooth="yes"/>
      <point x="45" y="-133"/>
      <point x="69" y="-120"/>
      <point x="93" y="-80" type="curve" smooth="yes"/>
      <point x="128" y="-22" type="line"/>
      <point x="85" y="524" type="line"/>
      <point x="191" y="524" type="line"/>
      <point x="206" y="100" type="line"/>
      <point x="430" y="524" type="line"/>
    </contour>
  </outline>
</glyph>
<glyph name="z" format="1">
  <advance width="434"/>
  <unicode hex="007A"/>
  <outline>
    <contour>
      <point x="470" y="521" type="line"/>
      <point x="455" y="457" type="line"/>
      <point x="103" y="74" type="line"/>
      <point x="359" y="74" type="line"/>
      <point x="340" y="0" type="line"/>
      <point x="-37" y="0" type="line"/>
      <point x="-21" y="65" type="line"/>
      <point x="330" y="448" type="line"/>
      <point x="89" y="448" type="line"/>
      <point x="108" y="521" type="line"/>
    </contour>
  </outline>
</glyph>
<glyph name="braceright" format="1">
  <advance width="412"/>
  <unicode hex="007D"/>
  <outline>
    <contour>
      <point x="413" y="345" type="curve"/>
      <point x="401" y="295" type="line"/>
      <point x="326" y="295"/>
      <point x="263" y="268"/>
      <point x="245" y="197" type="curve" smooth="yes"/>
      <point x="234" y="151"/>
      <point x="237" y="82"/>
      <point x="225" y="34" type="curve" smooth="yes"/>
      <point x="206" y="-43"/>
      <point x="155" y="-80"/>
      <point x="62" y="-80" type="curve" smooth="yes"/>
      <point x="-56" y="-80" type="line"/>
      <point x="-44" y="-30" type="line"/>
      <point x="27" y="-30" type="line" smooth="yes"/>
      <point x="83" y="-30"/>
      <point x="113" y="-7"/>
      <point x="124" y="37" type="curve" smooth="yes"/>
      <point x="136" y="83"/>
      <point x="129" y="142"/>
      <point x="142" y="193" type="curve" smooth="yes"/>
      <point x="161" y="272"/>
      <point x="210" y="298"/>
      <point x="278" y="317" type="curve"/>
      <point x="280" y="325" type="line"/>
      <point x="225" y="343"/>
      <point x="202" y="365"/>
      <point x="202" y="412" type="curve" smooth="yes"/>
      <point x="202" y="479"/>
      <point x="267" y="566"/>
      <point x="267" y="622" type="curve" smooth="yes"/>
      <point x="267" y="652"/>
      <point x="246" y="670"/>
      <point x="202" y="670" type="curve" smooth="yes"/>
      <point x="131" y="670" type="line"/>
      <point x="144" y="720" type="line"/>
      <point x="255" y="720" type="line" smooth="yes"/>
      <point x="334" y="720"/>
      <point x="369" y="690"/>
      <point x="369" y="634" type="curve" smooth="yes"/>
      <point x="369" y="559"/>
      <point x="303" y="479"/>
      <point x="303" y="416" type="curve" smooth="yes"/>
      <point x="303" y="371"/>
      <point x="339" y="345"/>
    </contour>
  </outline>
</glyph>
<glyph name="exclamdown" format="1">
  <advance width="261"/>
  <unicode hex="00A1"/>
  <outline>
    <contour>
      <point x="293" y="662" type="curve" smooth="yes"/>
      <point x="293" y="624"/>
      <point x="265" y="596"/>
      <point x="228" y="596" type="curve" smooth="yes"/>
      <point x="190" y="596"/>
      <point x="162" y="624"/>
      <point x="162" y="662" type="curve" smooth="yes"/>
      <point x="162" y="699"/>
      <point x="190" y="727"/>
      <point x="228" y="727" type="curve" smooth="yes"/>
      <point x="265" y="727"/>
      <point x="293" y="699"/>
    </contour>
    <contour>
      <point x="221" y="499" type="line"/>
      <point x="129" y="0" type="line"/>
      <point x="-2" y="0" type="line"/>
      <point x="160" y="499" type="line"/>
    </contour>
  </outline>
</glyph>
<glyph name="yen" format="1">
  <advance width="625"/>
  <unicode hex="00A5"/>
  <outline>
    <contour>
      <point x="722" y="720" type="line"/>
      <point x="460" y="393" type="line"/>
      <point x="594" y="393" type="line"/>
      <point x="579" y="334" type="line"/>
      <point x="413" y="334" type="line"/>
      <point x="371" y="281" type="line"/>
      <point x="352" y="206" type="line"/>
      <point x="547" y="206" type="line"/>
      <point x="532" y="147" type="line"/>
      <point x="337" y="147" type="line"/>
      <point x="301" y="0" type="line"/>
      <point x="193" y="0" type="line"/>
      <point x="230" y="147" type="line"/>
      <point x="35" y="147" type="line"/>
      <point x="50" y="206" type="line"/>
      <point x="245" y="206" type="line"/>
      <point x="263" y="279" type="line"/>
      <point x="246" y="334" type="line"/>
      <point x="81" y="334" type="line"/>
      <point x="97" y="393" type="line"/>
      <point x="229" y="393" type="line"/>
      <point x="131" y="720" type="line"/>
      <point x="246" y="720" type="line"/>
      <point x="338" y="369" type="line"/>
      <point x="605" y="720" type="line"/>
    </contour>
  </outline>
</glyph>
<glyph name="section" format="1">
  <advance width="592"/>
  <unicode hex="00A7"/>
  <outline>
    <contour>
      <point x="610" y="659" type="curve"/>
      <point x="562" y="589" type="line"/>
      <point x="504" y="627"/>
      <point x="427" y="653"/>
      <point x="361" y="653" type="curve" smooth="yes"/>
      <point x="303" y="653"/>
      <point x="273" y="633"/>
      <point x="273" y="598" type="curve" smooth="yes"/>
      <point x="273" y="566"/>
      <point x="300" y="546"/>
      <point x="404" y="509" type="curve" smooth="yes"/>
      <point x="544" y="460"/>
      <point x="585" y="418"/>
      <point x="585" y="360" type="curve" smooth="yes"/>
      <point x="585" y="285"/>
      <point x="512" y="230"/>
      <point x="393" y="233" type="curve"/>
      <point x="391" y="227" type="line"/>
      <point x="441" y="200"/>
      <point x="469" y="170"/>
      <point x="469" y="120" type="curve" smooth="yes"/>
      <point x="469" y="40"/>
      <point x="399" y="-12"/>
      <point x="276" y="-12" type="curve" smooth="yes"/>
      <point x="179" y="-12"/>
      <point x="96" y="17"/>
      <point x="29" y="61" type="curve"/>
      <point x="78" y="131" type="line"/>
      <point x="135" y="93"/>
      <point x="213" y="67"/>
      <point x="279" y="67" type="curve" smooth="yes"/>
      <point x="337" y="67"/>
      <point x="367" y="87"/>
      <point x="367" y="122" type="curve" smooth="yes"/>
      <point x="367" y="154"/>
      <point x="340" y="174"/>
      <point x="235" y="211" type="curve" smooth="yes"/>
      <point x="96" y="260"/>
      <point x="55" y="302"/>
      <point x="55" y="360" type="curve" smooth="yes"/>
      <point x="55" y="435"/>
      <point x="128" y="490"/>
      <point x="246" y="487" type="curve"/>
      <point x="248" y="493" type="line"/>
      <point x="199" y="520"/>
      <point x="171" y="550"/>
      <point x="171" y="600" type="curve" smooth="yes"/>
      <point x="171" y="680"/>
      <point x="241" y="732"/>
      <point x="364" y="732" type="curve" smooth="yes"/>
      <point x="460" y="732"/>
      <point x="544" y="703"/>
    </contour>
    <contour>
      <point x="488" y="340" type="curve" smooth="yes"/>
      <point x="488" y="367"/>
      <point x="468" y="394"/>
      <point x="391" y="426" type="curve" smooth="yes"/>
      <point x="357" y="440"/>
      <point x="305" y="452"/>
      <point x="264" y="452" type="curve" smooth="yes"/>
      <point x="194" y="452"/>
      <point x="151" y="423"/>
      <point x="151" y="380" type="curve" smooth="yes"/>
      <point x="151" y="353"/>
      <point x="172" y="326"/>
      <point x="248" y="294" type="curve" smooth="yes"/>
      <point x="283" y="280"/>
      <point x="334" y="268"/>
      <point x="375" y="268" type="curve" smooth="yes"/>
      <point x="446" y="268"/>
      <point x="488" y="297"/>
    </contour>
  </outline>
</glyph>
<glyph name="dieresis" format="1">
  <advance width="500"/>
  <unicode hex="00A8"/>
  <outline>
    <contour>
      <point x="500" y="698" type="line"/>
      <point x="474" y="592" type="line"/>
      <point x="378" y="592" type="line"/>
      <point x="405" y="698" type="line"/>
    </contour>
    <contour>
      <point x="311" y="698" type="line"/>
      <point x="285" y="592" type="line"/>
      <point x="189" y="592" type="line"/>
      <point x="216" y="698" type="line"/>
    </contour>
  </outline>
</glyph>
<glyph name="ordfeminine" format="1">
  <advance width="390"/>
  <unicode hex="00AA"/>
  <outline>
    <contour>
      <point x="405" y="649" type="curve" smooth="yes"/>
      <point x="405" y="636"/>
      <point x="402" y="620"/>
      <point x="398" y="603" type="curve" smooth="yes"/>
      <point x="358" y="444" type="line" smooth="yes"/>
      <point x="357" y="438"/>
      <point x="355" y="431"/>
      <point x="355" y="426" type="curve" smooth="yes"/>
      <point x="355" y="413"/>
      <point x="364" y="405"/>
      <point x="385" y="402" type="curve"/>
      <point x="376" y="368" type="line"/>
      <point x="314" y="370"/>
      <point x="287" y="390"/>
      <point x="284" y="422" type="curve"/>
      <point x="242" y="383"/>
      <point x="207" y="366"/>
      <point x="166" y="366" type="curve" smooth="yes"/>
      <point x="119" y="366"/>
      <point x="86" y="394"/>
      <point x="86" y="443" type="curve" smooth="yes"/>
      <point x="86" y="520"/>
      <point x="153" y="576"/>
      <point x="319" y="580" type="curve"/>
      <point x="326" y="606" type="line" smooth="yes"/>
      <point x="329" y="617"/>
      <point x="330" y="626"/>
      <point x="330" y="634" type="curve" smooth="yes"/>
      <point x="330" y="659"/>
      <point x="312" y="671"/>
      <point x="278" y="671" type="curve" smooth="yes"/>
      <point x="245" y="671"/>
      <point x="214" y="662"/>
      <point x="172" y="643" type="curve"/>
      <point x="158" y="693" type="line"/>
      <point x="205" y="714"/>
      <point x="248" y="725"/>
      <point x="297" y="725" type="curve" smooth="yes"/>
      <point x="369" y="725"/>
      <point x="405" y="697"/>
    </contour>
    <contour>
      <point x="351" y="297" type="line"/>
      <point x="339" y="251" type="line"/>
      <point x="45" y="251" type="line"/>
      <point x="57" y="297" type="line"/>
    </contour>
    <contour>
      <point x="311" y="546" type="line"/>
      <point x="194" y="543"/>
      <point x="159" y="503"/>
      <point x="159" y="458" type="curve" smooth="yes"/>
      <point x="159" y="430"/>
      <point x="177" y="414"/>
      <point x="207" y="414" type="curve" smooth="yes"/>
      <point x="229" y="414"/>
      <point x="258" y="429"/>
      <point x="289" y="459" type="curve"/>
    </contour>
  </outline>
</glyph>
<glyph name="guillemotleft" format="1">
  <advance width="481"/>
  <unicode hex="00AB"/>
  <outline>
    <contour>
      <point x="498" y="450" type="line"/>
      <point x="341" y="259" type="line"/>
      <point x="401" y="74" type="line"/>
      <point x="343" y="74" type="line"/>
      <point x="228" y="262" type="line"/>
      <point x="431" y="450" type="line"/>
    </contour>
    <contour>
      <point x="293" y="450" type="line"/>
      <point x="136" y="259" type="line"/>
      <point x="197" y="74" type="line"/>
      <point x="138" y="74" type="line"/>
      <point x="23" y="262" type="line"/>
      <point x="226" y="450" type="line"/>
    </contour>
  </outline>
</glyph>
<glyph name="degree" format="1">
  <advance width="400"/>
  <unicode hex="00B0"/>
  <outline>
    <contour>
      <point x="407" y="573" type="curve" smooth="yes"/>
      <point x="407" y="485"/>
      <point x="342" y="422"/>
      <point x="254" y="422" type="curve" smooth="yes"/>
      <point x="166" y="422"/>
      <point x="101" y="485"/>
      <point x="101" y="573" type="curve" smooth="yes"/>
      <point x="101" y="661"/>
      <point x="166" y="724"/>
      <point x="254" y="724" type="curve" smooth="yes"/>
      <point x="342" y="724"/>
      <point x="407" y="661"/>
    </contour>
    <contour>
      <point x="348" y="573" type="curve" smooth="yes"/>
      <point x="348" y="630"/>
      <point x="309" y="672"/>
      <point x="254" y="672" type="curve" smooth="yes"/>
      <point x="198" y="672"/>
      <point x="160" y="630"/>
      <point x="160" y="573" type="curve" smooth="yes"/>
      <point x="160" y="515"/>
      <point x="198" y="473"/>
      <point x="254" y="473" type="curve" smooth="yes"/>
      <point x="309" y="473"/>
      <point x="348" y="515"/>
    </contour>
  </outline>
</glyph>
<glyph name="acute" format="1">
  <advance width="500"/>
  <unicode hex="00B4"/>
  <outline>
    <contour>
      <point x="484" y="743" type="line"/>
      <point x="308" y="592" type="line"/>
      <point x="235" y="592" type="line"/>
      <point x="353" y="743" type="line"/>
    </contour>
  </outline>
</glyph>
<glyph name="paragraph" format="1">
  <advance width="540"/>
  <unicode hex="00B6"/>
  <outline>
    <contour>
      <point x="579" y="720" type="line"/>
      <point x="400" y="0" type="line"/>
      <point x="344" y="0" type="line"/>
      <point x="511" y="670" type="line"/>
      <point x="417" y="670" type="line"/>
      <point x="251" y="0" type="line"/>
      <point x="195" y="0" type="line"/>
      <point x="279" y="337" type="line"/>
      <point x="174" y="352"/>
      <point x="96" y="401"/>
      <point x="96" y="511" type="curve" smooth="yes"/>
      <point x="96" y="631"/>
      <point x="193" y="720"/>
      <point x="365" y="720" type="curve" smooth="yes"/>
    </contour>
  </outline>
</glyph>
<glyph name="periodcentered" format="1">
  <advance width="210"/>
  <unicode hex="00B7"/>
  <outline>
    <contour>
      <point x="176" y="278" type="curve" smooth="yes"/>
      <point x="176" y="239"/>
      <point x="147" y="210"/>
      <point x="108" y="210" type="curve" smooth="yes"/>
      <point x="70" y="210"/>
      <point x="41" y="239"/>
      <point x="41" y="278" type="curve" smooth="yes"/>
      <point x="41" y="317"/>
      <point x="70" y="346"/>
      <point x="108" y="346" type="curve" smooth="yes"/>
      <point x="147" y="346"/>
      <point x="176" y="317"/>
    </contour>
  </outline>
</glyph>
<glyph name="ordmasculine" format="1">
  <advance width="390"/>
  <unicode hex="00BA"/>
  <outline>
    <contour>
      <point x="410" y="596" type="curve" smooth="yes"/>
      <point x="410" y="486"/>
      <point x="344" y="364"/>
      <point x="229" y="364" type="curve" smooth="yes"/>
      <point x="152" y="364"/>
      <point x="99" y="405"/>
      <point x="99" y="495" type="curve" smooth="yes"/>
      <point x="99" y="605"/>
      <point x="165" y="727"/>
      <point x="280" y="727" type="curve" smooth="yes"/>
      <point x="357" y="727"/>
      <point x="410" y="685"/>
    </contour>
    <contour>
      <point x="346" y="297" type="line"/>
      <point x="335" y="251" type="line"/>
      <point x="50" y="251" type="line"/>
      <point x="61" y="297" type="line"/>
    </contour>
    <contour>
      <point x="336" y="602" type="curve" smooth="yes"/>
      <point x="336" y="654"/>
      <point x="314" y="677"/>
      <point x="280" y="677" type="curve" smooth="yes"/>
      <point x="212" y="677"/>
      <point x="173" y="565"/>
      <point x="173" y="488" type="curve" smooth="yes"/>
      <point x="173" y="436"/>
      <point x="195" y="413"/>
      <point x="229" y="413" type="curve" smooth="yes"/>
      <point x="297" y="413"/>
      <point x="336" y="526"/>
    </contour>
  </outline>
</glyph>
<glyph name="guillemotright" format="1">
  <advance width="481"/>
  <unicode hex="00BB"/>
  <outline>
    <contour>
      <point x="458" y="262" type="line"/>
      <point x="255" y="74" type="line"/>
      <point x="188" y="74" type="line"/>
      <point x="345" y="265" type="line"/>
      <point x="284" y="450" type="line"/>
      <point x="343" y="450" type="line"/>
    </contour>
    <contour>
      <point x="253" y="262" type="line"/>
      <point x="50" y="74" type="line"/>
      <point x="-17" y="74" type="line"/>
      <point x="140" y="265" type="line"/>
      <point x="80" y="450" type="line"/>
      <point x="138" y="450" type="line"/>
    </contour>
  </outline>
</glyph>
<glyph name="AE" format="1">
  <advance width="935"/>
  <unicode hex="00C6"/>
  <outline>
    <contour>
      <point x="1003" y="720" type="line"/>
      <point x="980" y="631" type="line"/>
      <point x="665" y="631" type="line"/>
      <point x="612" y="417" type="line"/>
      <point x="860" y="417" type="line"/>
      <point x="839" y="332" type="line"/>
      <point x="591" y="332" type="line"/>
      <point x="530" y="89" type="line"/>
      <point x="858" y="89" type="line"/>
      <point x="835" y="0" type="line"/>
      <point x="397" y="0" type="line"/>
      <point x="442" y="178" type="line"/>
      <point x="195" y="178" type="line"/>
      <point x="63" y="0" type="line"/>
      <point x="-58" y="0" type="line"/>
      <point x="481" y="720" type="line"/>
    </contour>
    <contour>
      <point x="556" y="634" type="line"/>
      <point x="530" y="634" type="line"/>
      <point x="247" y="255" type="line"/>
      <point x="461" y="255" type="line"/>
    </contour>
  </outline>
</glyph>
<glyph name="Ccedilla" format="1">
  <advance width="590"/>
  <unicode hex="00C7"/>
  <outline>
    <contour>
      <point x="608" y="496" type="curve"/>
      <point x="497" y="475" type="line"/>
      <point x="502" y="587"/>
      <point x="471" y="644"/>
      <point x="395" y="644" type="curve" smooth="yes"/>
      <point x="302" y="644"/>
      <point x="232" y="534"/>
      <point x="194" y="392" type="curve" smooth="yes"/>
      <point x="176" y="327"/>
      <point x="168" y="274"/>
      <point x="168" y="228" type="curve" smooth="yes"/>
      <point x="168" y="225" type="line" smooth="yes"/>
      <point x="168" y="141"/>
      <point x="203" y="76"/>
      <point x="279" y="76" type="curve" smooth="yes"/>
      <point x="349" y="76"/>
      <point x="398" y="129"/>
      <point x="442" y="232" type="curve"/>
      <point x="543" y="200" type="line"/>
      <point x="481" y="61"/>
      <point x="400" y="-10"/>
      <point x="273" y="-12" type="curve"/>
      <point x="233" y="-54" type="line"/>
      <point x="246" y="-51"/>
      <point x="261" y="-49"/>
      <point x="275" y="-49" type="curve" smooth="yes"/>
      <point x="322" y="-49"/>
      <point x="349" y="-68"/>
      <point x="349" y="-102" type="curve" smooth="yes"/>
      <point x="349" y="-160"/>
      <point x="278" y="-190"/>
      <point x="175" y="-190" type="curve" smooth="yes"/>
      <point x="146" y="-190"/>
      <point x="114" y="-188"/>
      <point x="90" y="-185" type="curve"/>
      <point x="98" y="-158" type="line"/>
      <point x="119" y="-160"/>
      <point x="142" y="-162"/>
      <point x="160" y="-162" type="curve" smooth="yes"/>
      <point x="236" y="-162"/>
      <point x="273" y="-145"/>
      <point x="273" y="-118" type="curve" smooth="yes"/>
      <point x="273" y="-102"/>
      <point x="260" y="-92"/>
      <point x="235" y="-92" type="curve" smooth="yes"/>
      <point x="218" y="-92"/>
      <point x="202" y="-95"/>
      <point x="182" y="-102" type="curve"/>
      <point x="158" y="-84" type="line"/>
      <point x="231" y="-9" type="line"/>
      <point x="120" y="5"/>
      <point x="54" y="92"/>
      <point x="54" y="228" type="curve" smooth="yes"/>
      <point x="54" y="232" type="line" smooth="yes"/>
      <point x="54" y="273"/>
      <point x="60" y="323"/>
      <point x="71" y="372" type="curve" smooth="yes"/>
      <point x="118" y="585"/>
      <point x="232" y="732"/>
      <point x="404" y="732" type="curve" smooth="yes"/>
      <point x="551" y="732"/>
      <point x="616" y="641"/>
    </contour>
  </outline>
</glyph>
<glyph name="Eth" format="1">
  <advance width="663"/>
  <unicode hex="00D0"/>
  <outline>
    <contour>
      <point x="657" y="469" type="line" smooth="yes"/>
      <point x="657" y="428"/>
      <point x="653" y="392"/>
      <point x="643" y="347" type="curve" smooth="yes"/>
      <point x="590" y="118"/>
      <point x="448" y="0"/>
      <point x="246" y="0" type="curve" smooth="yes"/>
      <point x="43" y="0" type="line"/>
      <point x="126" y="330" type="line"/>
      <point x="41" y="330" type="line"/>
      <point x="63" y="419" type="line"/>
      <point x="148" y="419" type="line"/>
      <point x="222" y="720" type="line"/>
      <point x="391" y="720" type="line" smooth="yes"/>
      <point x="552" y="720"/>
      <point x="657" y="641"/>
      <point x="657" y="472" type="curve" smooth="yes"/>
    </contour>
    <contour>
      <point x="539" y="462" type="curve" smooth="yes"/>
      <point x="539" y="466" type="line" smooth="yes"/>
      <point x="539" y="575"/>
      <point x="475" y="632"/>
      <point x="376" y="632" type="curve" smooth="yes"/>
      <point x="309" y="632" type="line"/>
      <point x="255" y="419" type="line"/>
      <point x="378" y="419" type="line"/>
      <point x="356" y="330" type="line"/>
      <point x="233" y="330" type="line"/>
      <point x="173" y="88" type="line"/>
      <point x="253" y="88" type="line" smooth="yes"/>
      <point x="380" y="88"/>
      <point x="479" y="172"/>
      <point x="523" y="340" type="curve" smooth="yes"/>
      <point x="533" y="378"/>
      <point x="539" y="423"/>
    </contour>
  </outline>
</glyph>
<glyph name="multiply" format="1">
  <advance width="600"/>
  <unicode hex="00D7"/>
  <outline>
    <contour>
      <point x="565" y="179" type="line"/>
      <point x="499" y="114" type="line"/>
      <point x="323" y="294" type="line"/>
      <point x="148" y="114" type="line"/>
      <point x="82" y="179" type="line"/>
      <point x="262" y="355" type="line"/>
      <point x="82" y="531" type="line"/>
      <point x="148" y="596" type="line"/>
      <point x="323" y="416" type="line"/>
      <point x="499" y="596" type="line"/>
      <point x="565" y="531" type="line"/>
      <point x="385" y="355" type="line"/>
    </contour>
  </outline>
</glyph>
<glyph name="Oslash" format="1">
  <advance width="627"/>
  <unicode hex="00D8"/>
  <outline>
    <contour>
      <point x="714" y="817" type="line"/>
      <point x="582" y="644" type="line"/>
      <point x="608" y="605"/>
      <point x="622" y="553"/>
      <point x="622" y="492" type="curve" smooth="yes"/>
      <point x="622" y="488" type="line" smooth="yes"/>
      <point x="622" y="444"/>
      <point x="615" y="390"/>
      <point x="604" y="342" type="curve" smooth="yes"/>
      <point x="557" y="132"/>
      <point x="444" y="-12"/>
      <point x="271" y="-12" type="curve" smooth="yes"/>
      <point x="213" y="-12"/>
      <point x="165" y="5"/>
      <point x="129" y="35" type="curve"/>
      <point x="33" y="-95" type="line"/>
      <point x="-38" y="-95" type="line"/>
      <point x="93" y="76" type="line"/>
      <point x="68" y="115"/>
      <point x="54" y="166"/>
      <point x="54" y="228" type="curve" smooth="yes"/>
      <point x="54" y="232" type="line" smooth="yes"/>
      <point x="54" y="276"/>
      <point x="61" y="330"/>
      <point x="72" y="378" type="curve" smooth="yes"/>
      <point x="119" y="588"/>
      <point x="232" y="732"/>
      <point x="405" y="732" type="curve" smooth="yes"/>
      <point x="463" y="732"/>
      <point x="511" y="715"/>
      <point x="547" y="684" type="curve"/>
      <point x="644" y="817" type="line"/>
    </contour>
    <contour>
      <point x="488" y="603" type="line"/>
      <point x="468" y="631"/>
      <point x="439" y="648"/>
      <point x="398" y="648" type="curve" smooth="yes"/>
      <point x="302" y="648"/>
      <point x="229" y="547"/>
      <point x="189" y="400" type="curve" smooth="yes"/>
      <point x="169" y="328"/>
      <point x="160" y="272"/>
      <point x="160" y="226" type="curve" smooth="yes"/>
      <point x="160" y="224" type="line" smooth="yes"/>
      <point x="160" y="203"/>
      <point x="162" y="183"/>
      <point x="167" y="165" type="curve"/>
    </contour>
    <contour>
      <point x="515" y="494" type="curve" smooth="yes"/>
      <point x="515" y="496" type="line" smooth="yes"/>
      <point x="515" y="517"/>
      <point x="513" y="536"/>
      <point x="509" y="553" type="curve"/>
      <point x="188" y="116" type="line"/>
      <point x="208" y="89"/>
      <point x="237" y="72"/>
      <point x="278" y="72" type="curve" smooth="yes"/>
      <point x="374" y="72"/>
      <point x="447" y="173"/>
      <point x="487" y="320" type="curve" smooth="yes"/>
      <point x="506" y="392"/>
      <point x="515" y="448"/>
    </contour>
  </outline>
</glyph>
<glyph name="Thorn" format="1">
  <advance width="577"/>
  <unicode hex="00DE"/>
  <outline>
    <contour>
      <point x="575" y="407" type="curve" smooth="yes"/>
      <point x="575" y="254"/>
      <point x="453" y="156"/>
      <point x="276" y="156" type="curve" smooth="yes"/>
      <point x="159" y="156" type="line"/>
      <point x="120" y="0" type="line"/>
      <point x="6" y="0" type="line"/>
      <point x="185" y="720" type="line"/>
      <point x="300" y="720" type="line"/>
      <point x="266" y="584" type="line"/>
      <point x="354" y="584" type="line" smooth="yes"/>
      <point x="498" y="584"/>
      <point x="575" y="523"/>
    </contour>
    <contour>
      <point x="462" y="397" type="curve" smooth="yes"/>
      <point x="462" y="466"/>
      <point x="420" y="502"/>
      <point x="331" y="502" type="curve" smooth="yes"/>
      <point x="241" y="502" type="line"/>
      <point x="176" y="240" type="line"/>
      <point x="274" y="240" type="line" smooth="yes"/>
      <point x="387" y="240"/>
      <point x="462" y="299"/>
    </contour>
  </outline>
</glyph>
<glyph name="germandbls" format="1">
  <advance width="586"/>
  <unicode hex="00DF"/>
  <outline>
    <contour>
      <point x="577" y="614" type="curve" smooth="yes"/>
      <point x="577" y="503"/>
      <point x="489" y="443"/>
      <point x="410" y="413" type="curve"/>
      <point x="408" y="406" type="line"/>
      <point x="485" y="374"/>
      <point x="541" y="304"/>
      <point x="541" y="213" type="curve" smooth="yes"/>
      <point x="541" y="70"/>
      <point x="436" y="-8"/>
      <point x="309" y="-8" type="curve" smooth="yes"/>
      <point x="249" y="-8"/>
      <point x="207" y="6"/>
      <point x="173" y="28" type="curve"/>
      <point x="205" y="95" type="line"/>
      <point x="233" y="77"/>
      <point x="260" y="65"/>
      <point x="298" y="65" type="curve" smooth="yes"/>
      <point x="376" y="65"/>
      <point x="434" y="123"/>
      <point x="434" y="215" type="curve" smooth="yes"/>
      <point x="434" y="295"/>
      <point x="385" y="357"/>
      <point x="281" y="378" type="curve"/>
      <point x="298" y="445" type="line"/>
      <point x="394" y="450"/>
      <point x="469" y="518"/>
      <point x="469" y="600" type="curve" smooth="yes"/>
      <point x="469" y="655"/>
      <point x="434" y="686"/>
      <point x="376" y="686" type="curve" smooth="yes"/>
      <point x="308" y="686"/>
      <point x="263" y="646"/>
      <point x="241" y="559" type="curve" smooth="yes"/>
      <point x="55" y="-188" type="line"/>
      <point x="-52" y="-188" type="line"/>
      <point x="134" y="560" type="line" smooth="yes"/>
      <point x="169" y="699"/>
      <point x="252" y="759"/>
      <point x="391" y="759" type="curve" smooth="yes"/>
      <point x="505" y="759"/>
      <point x="577" y="702"/>
    </contour>
  </outline>
</glyph>
<glyph name="ccedilla" format="1">
  <advance width="462"/>
  <unicode hex="00E7"/>
  <outline>
    <contour>
      <point x="462" y="374" type="curve"/>
      <point x="362" y="359" type="line"/>
      <point x="359" y="426"/>
      <point x="343" y="463"/>
      <point x="293" y="463" type="curve" smooth="yes"/>
      <point x="225" y="463"/>
      <point x="178" y="388"/>
      <point x="149" y="280" type="curve" smooth="yes"/>
      <point x="137" y="238"/>
      <point x="132" y="200"/>
      <point x="132" y="165" type="curve" smooth="yes"/>
      <point x="132" y="163" type="line" smooth="yes"/>
      <point x="132" y="95"/>
      <point x="164" y="61"/>
      <point x="211" y="61" type="curve" smooth="yes"/>
      <point x="252" y="61"/>
      <point x="285" y="91"/>
      <point x="322" y="151" type="curve"/>
      <point x="410" y="121" type="line"/>
      <point x="361" y="40"/>
      <point x="298" y="-9"/>
      <point x="206" y="-10" type="curve"/>
      <point x="164" y="-54" type="line"/>
      <point x="178" y="-51"/>
      <point x="192" y="-49"/>
      <point x="206" y="-49" type="curve" smooth="yes"/>
      <point x="253" y="-49"/>
      <point x="280" y="-68"/>
      <point x="280" y="-102" type="curve" smooth="yes"/>
      <point x="280" y="-160"/>
      <point x="209" y="-190"/>
      <point x="106" y="-190" type="curve" smooth="yes"/>
      <point x="78" y="-190"/>
      <point x="45" y="-188"/>
      <point x="21" y="-185" type="curve"/>
      <point x="29" y="-158" type="line"/>
      <point x="50" y="-160"/>
      <point x="73" y="-162"/>
      <point x="91" y="-162" type="curve" smooth="yes"/>
      <point x="167" y="-162"/>
      <point x="205" y="-145"/>
      <point x="205" y="-118" type="curve" smooth="yes"/>
      <point x="205" y="-102"/>
      <point x="191" y="-92"/>
      <point x="167" y="-92" type="curve" smooth="yes"/>
      <point x="149" y="-92"/>
      <point x="134" y="-95"/>
      <point x="113" y="-102" type="curve"/>
      <point x="90" y="-84" type="line"/>
      <point x="166" y="-7" type="line"/>
      <point x="82" y="6"/>
      <point x="27" y="68"/>
      <point x="27" y="174" type="curve" smooth="yes"/>
      <point x="27" y="176" type="line" smooth="yes"/>
      <point x="27" y="208"/>
      <point x="33" y="248"/>
      <point x="42" y="285" type="curve" smooth="yes"/>
      <point x="78" y="429"/>
      <point x="164" y="534"/>
      <point x="303" y="534" type="curve" smooth="yes"/>
      <point x="413" y="534"/>
      <point x="458" y="470"/>
    </contour>
  </outline>
</glyph>
<glyph name="eth" format="1">
  <advance width="510"/>
  <unicode hex="00F0"/>
  <outline>
    <contour>
      <point x="553" y="762" type="line"/>
      <point x="541" y="714" type="line"/>
      <point x="447" y="672" type="line"/>
      <point x="480" y="611"/>
      <point x="498" y="542"/>
      <point x="498" y="467" type="curve" smooth="yes"/>
      <point x="498" y="463" type="line" smooth="yes"/>
      <point x="498" y="404"/>
      <point x="489" y="344"/>
      <point x="466" y="254" type="curve" smooth="yes"/>
      <point x="422" y="77"/>
      <point x="326" y="-10"/>
      <point x="202" y="-10" type="curve" smooth="yes"/>
      <point x="95" y="-10"/>
      <point x="27" y="53"/>
      <point x="27" y="174" type="curve" smooth="yes"/>
      <point x="27" y="176" type="line" smooth="yes"/>
      <point x="27" y="207"/>
      <point x="32" y="246"/>
      <point x="41" y="282" type="curve" smooth="yes"/>
      <point x="76" y="427"/>
      <point x="163" y="530"/>
      <point x="280" y="530" type="curve" smooth="yes"/>
      <point x="352" y="530"/>
      <point x="392" y="484"/>
      <point x="409" y="417" type="curve"/>
      <point x="414" y="417" type="line"/>
      <point x="422" y="505"/>
      <point x="404" y="578"/>
      <point x="367" y="643" type="curve"/>
      <point x="233" y="584" type="line"/>
      <point x="246" y="632" type="line"/>
      <point x="342" y="676" type="line"/>
      <point x="327" y="697"/>
      <point x="310" y="716"/>
      <point x="290" y="734" type="curve"/>
      <point x="385" y="762" type="line"/>
      <point x="399" y="744"/>
      <point x="413" y="726"/>
      <point x="425" y="707" type="curve"/>
    </contour>
    <contour>
      <point x="372" y="361" type="curve" smooth="yes"/>
      <point x="372" y="363" type="line" smooth="yes"/>
      <point x="372" y="435"/>
      <point x="343" y="467"/>
      <point x="295" y="467" type="curve" smooth="yes"/>
      <point x="225" y="467"/>
      <point x="176" y="388"/>
      <point x="149" y="279" type="curve" smooth="yes"/>
      <point x="137" y="232"/>
      <point x="131" y="195"/>
      <point x="131" y="164" type="curve" smooth="yes"/>
      <point x="131" y="162" type="line" smooth="yes"/>
      <point x="131" y="90"/>
      <point x="160" y="57"/>
      <point x="208" y="57" type="curve" smooth="yes"/>
      <point x="278" y="57"/>
      <point x="327" y="137"/>
      <point x="354" y="245" type="curve" smooth="yes"/>
      <point x="366" y="292"/>
      <point x="372" y="329"/>
    </contour>
  </outline>
</glyph>
<glyph name="thorn" format="1">
  <advance width="526"/>
  <unicode hex="00FE"/>
  <outline>
    <contour>
      <point x="501" y="377" type="line" smooth="yes"/>
      <point x="501" y="172"/>
      <point x="383" y="-9"/>
      <point x="267" y="-9" type="curve" smooth="yes"/>
      <point x="203" y="-9"/>
      <point x="173" y="25"/>
      <point x="133" y="103" type="curve"/>
      <point x="128" y="103" type="line"/>
      <point x="55" y="-188" type="line"/>
      <point x="-52" y="-188" type="line"/>
      <point x="178" y="736" type="line"/>
      <point x="291" y="759" type="line"/>
      <point x="202" y="402" type="line"/>
      <point x="207" y="402" type="line"/>
      <point x="283" y="498"/>
      <point x="333" y="533"/>
      <point x="388" y="533" type="curve" smooth="yes"/>
      <point x="465" y="533"/>
      <point x="501" y="468"/>
      <point x="501" y="379" type="curve" smooth="yes"/>
    </contour>
    <contour>
      <point x="394" y="356" type="curve" smooth="yes"/>
      <point x="394" y="417"/>
      <point x="379" y="458"/>
      <point x="329" y="458" type="curve" smooth="yes"/>
      <point x="252" y="458"/>
      <point x="151" y="269"/>
      <point x="151" y="185" type="curve" smooth="yes"/>
      <point x="151" y="118"/>
      <point x="187" y="59"/>
      <point x="234" y="59" type="curve" smooth="yes"/>
      <point x="313" y="59"/>
      <point x="394" y="218"/>
    </contour>
  </outline>
</glyph>
<glyph name="Lslash" format="1">
  <advance width="552"/>
  <unicode hex="0141"/>
  <outline>
    <contour>
      <point x="493" y="95" type="line"/>
      <point x="469" y="0" type="line"/>
      <point x="43" y="0" type="line"/>
      <point x="120" y="307" type="line"/>
      <point x="25" y="270" type="line"/>
      <point x="49" y="362" type="line"/>
      <point x="142" y="400" type="line"/>
      <point x="222" y="720" type="line"/>
      <point x="334" y="720" type="line"/>
      <point x="266" y="446" type="line"/>
      <point x="420" y="508" type="line"/>
      <point x="397" y="415" type="line"/>
      <point x="243" y="354" type="line"/>
      <point x="179" y="95" type="line"/>
    </contour>
  </outline>
</glyph>
<glyph name="florin" format="1">
  <advance width="441"/>
  <unicode hex="0192"/>
  <outline>
    <contour>
      <point x="502" y="704" type="curve"/>
      <point x="483" y="627" type="line"/>
      <point x="459" y="640"/>
      <point x="435" y="651"/>
      <point x="400" y="651" type="curve" smooth="yes"/>
      <point x="358" y="651"/>
      <point x="335" y="627"/>
      <point x="321" y="572" type="curve" smooth="yes"/>
      <point x="294" y="463" type="line"/>
      <point x="419" y="463" type="line"/>
      <point x="400" y="388" type="line"/>
      <point x="276" y="388" type="line"/>
      <point x="164" y="-62" type="line" smooth="yes"/>
      <point x="140" y="-160"/>
      <point x="81" y="-190"/>
      <point x="1" y="-190" type="curve" smooth="yes"/>
      <point x="-36" y="-190"/>
      <point x="-65" y="-184"/>
      <point x="-91" y="-174" type="curve"/>
      <point x="-74" y="-105" type="line"/>
      <point x="-55" y="-113"/>
      <point x="-38" y="-118"/>
      <point x="-18" y="-118" type="curve" smooth="yes"/>
      <point x="23" y="-118"/>
      <point x="47" y="-99"/>
      <point x="59" y="-50" type="curve" smooth="yes"/>
      <point x="168" y="388" type="line"/>
      <point x="69" y="388" type="line"/>
      <point x="87" y="463" type="line"/>
      <point x="187" y="463" type="line"/>
      <point x="216" y="582" type="line" smooth="yes"/>
      <point x="241" y="684"/>
      <point x="296" y="726"/>
      <point x="384" y="726" type="curve" smooth="yes"/>
      <point x="433" y="726"/>
      <point x="469" y="718"/>
    </contour>
  </outline>
</glyph>
<glyph name="circumflex" format="1">
  <advance width="500"/>
  <unicode hex="02C6"/>
  <outline>
    <contour>
      <point x="492" y="589" type="line"/>
      <point x="442" y="589" type="line"/>
      <point x="358" y="685" type="line"/>
      <point x="228" y="589" type="line"/>
      <point x="170" y="589" type="line"/>
      <point x="329" y="751" type="line"/>
      <point x="414" y="751" type="line"/>
    </contour>
  </outline>
</glyph>
<glyph name="breve" format="1">
  <advance width="500"/>
  <unicode hex="02D8"/>
  <outline>
    <contour>
      <point x="520" y="754" type="line"/>
      <point x="491" y="650"/>
      <point x="432" y="589"/>
      <point x="334" y="589" type="curve" smooth="yes"/>
      <point x="251" y="589"/>
      <point x="208" y="633"/>
      <point x="208" y="706" type="curve" smooth="yes"/>
      <point x="208" y="721"/>
      <point x="211" y="737"/>
      <point x="214" y="754" type="curve"/>
      <point x="262" y="754" type="line"/>
      <point x="261" y="747"/>
      <point x="261" y="741"/>
      <point x="261" y="735" type="curve" smooth="yes"/>
      <point x="261" y="683"/>
      <point x="288" y="655"/>
      <point x="345" y="655" type="curve" smooth="yes"/>
      <point x="408" y="655"/>
      <point x="445" y="690"/>
      <point x="470" y="754" type="curve"/>
    </contour>
  </outline>
</glyph>
<glyph name="dotaccent" format="1">
  <advance width="500"/>
  <unicode hex="02D9"/>
  <outline>
    <contour>
      <point x="408" y="698" type="line"/>
      <point x="382" y="592" type="line"/>
      <point x="282" y="592" type="line"/>
      <point x="308" y="698" type="line"/>
    </contour>
  </outline>
</glyph>
<glyph name="tilde" format="1">
  <advance width="500"/>
  <unicode hex="02DC"/>
  <outline>
    <contour>
      <point x="526" y="720" type="line"/>
      <point x="510" y="632"/>
      <point x="475" y="592"/>
      <point x="411" y="592" type="curve" smooth="yes"/>
      <point x="348" y="592"/>
      <point x="313" y="648"/>
      <point x="274" y="648" type="curve" smooth="yes"/>
      <point x="248" y="648"/>
      <point x="233" y="631"/>
      <point x="223" y="594" type="curve"/>
      <point x="170" y="594" type="line"/>
      <point x="186" y="681"/>
      <point x="221" y="722"/>
      <point x="284" y="722" type="curve" smooth="yes"/>
      <point x="347" y="722"/>
      <point x="383" y="666"/>
      <point x="422" y="666" type="curve" smooth="yes"/>
      <point x="448" y="666"/>
      <point x="462" y="682"/>
      <point x="472" y="720" type="curve"/>
    </contour>
  </outline>
</glyph>
<glyph name="endash" format="1">
  <advance width="500"/>
  <unicode hex="2013"/>
  <outline>
    <contour>
      <point x="481" y="329" type="line"/>
      <point x="458" y="239" type="line"/>
      <point x="29" y="239" type="line"/>
      <point x="52" y="329" type="line"/>
    </contour>
  </outline>
</glyph>
<glyph name="emdash" format="1">
  <advance width="1000"/>
  <unicode hex="2014"/>
  <outline>
    <contour>
      <point x="981" y="329" type="line"/>
      <point x="958" y="239" type="line"/>
      <point x="29" y="239" type="line"/>
      <point x="52" y="329" type="line"/>
    </contour>
  </outline>
</glyph>
<glyph name="quoteright" format="1">
  <advance width="210"/>
  <unicode hex="2019"/>
  <unicode hex="02BC"/>
  <outline>
    <contour>
      <point x="305" y="720" type="line"/>
      <point x="156" y="473" type="line"/>
      <point x="89" y="473" type="line"/>
      <point x="181" y="720" type="line"/>
    </contour>
  </outline>
</glyph>
<glyph name="quotedblleft" format="1">
  <advance width="386"/>
  <unicode hex="201C"/>
  <outline>
    <contour>
      <point x="427" y="720" type="line"/>
      <point x="402" y="473" type="line"/>
      <point x="344" y="473" type="line"/>
      <point x="314" y="720" type="line"/>
    </contour>
    <contour>
      <point x="254" y="720" type="line"/>
      <point x="229" y="473" type="line"/>
      <point x="171" y="473" type="line"/>
      <point x="141" y="720" type="line"/>
    </contour>
  </outline>
</glyph>
<glyph name="quotedblright" format="1">
  <advance width="386"/>
  <unicode hex="201D"/>
  <outline>
    <contour>
      <point x="481" y="720" type="line"/>
      <point x="332" y="473" type="line"/>
      <point x="267" y="473" type="line"/>
      <point x="359" y="720" type="line"/>
    </contour>
    <contour>
      <point x="303" y="720" type="line"/>
      <point x="154" y="473" type="line"/>
      <point x="89" y="473" type="line"/>
      <point x="181" y="720" type="line"/>
    </contour>
  </outline>
</glyph>
<glyph name="dagger" format="1">
  <advance width="456"/>
  <unicode hex="2020"/>
  <outline>
    <contour>
      <point x="496" y="538" type="line"/>
      <point x="474" y="451" type="line"/>
      <point x="313" y="477" type="line"/>
      <point x="305" y="343" type="line"/>
      <point x="182" y="0" type="line"/>
      <point x="142" y="0" type="line"/>
      <point x="190" y="343" type="line"/>
      <point x="250" y="477" type="line"/>
      <point x="75" y="451" type="line"/>
      <point x="96" y="538" type="line"/>
      <point x="258" y="511" type="line"/>
      <point x="284" y="720" type="line"/>
      <point x="399" y="720" type="line"/>
      <point x="321" y="511" type="line"/>
    </contour>
  </outline>
</glyph>
<glyph name="daggerdbl" format="1">
  <advance width="486"/>
  <unicode hex="2021"/>
  <outline>
    <contour>
      <point x="516" y="558" type="line"/>
      <point x="494" y="471" type="line"/>
      <point x="331" y="497" type="line"/>
      <point x="323" y="360" type="line"/>
      <point x="263" y="223" type="line"/>
      <point x="439" y="249" type="line"/>
      <point x="417" y="162" type="line"/>
      <point x="254" y="189" type="line"/>
      <point x="235" y="0" type="line"/>
      <point x="119" y="0" type="line"/>
      <point x="195" y="189" type="line"/>
      <point x="18" y="162" type="line"/>
      <point x="40" y="249" type="line"/>
      <point x="204" y="223" type="line"/>
      <point x="211" y="360" type="line"/>
      <point x="272" y="497" type="line"/>
      <point x="95" y="471" type="line"/>
      <point x="117" y="558" type="line"/>
      <point x="281" y="531" type="line"/>
      <point x="299" y="720" type="line"/>
      <point x="415" y="720" type="line"/>
      <point x="340" y="531" type="line"/>
    </contour>
  </outline>
</glyph>
<glyph name="ellipsis" format="1">
  <advance width="651"/>
  <unicode hex="2026"/>
  <outline>
    <contour>
      <point x="564" y="58" type="curve" smooth="yes"/>
      <point x="564" y="21"/>
      <point x="536" y="-7"/>
      <point x="499" y="-7" type="curve" smooth="yes"/>
      <point x="461" y="-7"/>
      <point x="433" y="21"/>
      <point x="433" y="58" type="curve" smooth="yes"/>
      <point x="433" y="96"/>
      <point x="461" y="124"/>
      <point x="499" y="124" type="curve" smooth="yes"/>
      <point x="536" y="124"/>
      <point x="564" y="96"/>
    </contour>
    <contour>
      <point x="342" y="58" type="curve" smooth="yes"/>
      <point x="342" y="21"/>
      <point x="314" y="-7"/>
      <point x="277" y="-7" type="curve" smooth="yes"/>
      <point x="239" y="-7"/>
      <point x="211" y="21"/>
      <point x="211" y="58" type="curve" smooth="yes"/>
      <point x="211" y="96"/>
      <point x="239" y="124"/>
      <point x="277" y="124" type="curve" smooth="yes"/>
      <point x="314" y="124"/>
      <point x="342" y="96"/>
    </contour>
    <contour>
      <point x="120" y="58" type="curve" smooth="yes"/>
      <point x="120" y="21"/>
      <point x="92" y="-7"/>
      <point x="55" y="-7" type="curve" smooth="yes"/>
      <point x="17" y="-7"/>
      <point x="-11" y="21"/>
      <point x="-11" y="58" type="curve" smooth="yes"/>
      <point x="-11" y="96"/>
      <point x="17" y="124"/>
      <point x="55" y="124" type="curve" smooth="yes"/>
      <point x="92" y="124"/>
      <point x="120" y="96"/>
    </contour>
  </outline>
</glyph>
<glyph name="perthousand" format="1">
  <advance width="1279"/>
  <unicode hex="2030"/>
  <outline>
    <contour>
      <point x="1244" y="244" type="curve" smooth="yes"/>
      <point x="1244" y="126"/>
      <point x="1163" y="-7"/>
      <point x="1037" y="-7" type="curve" smooth="yes"/>
      <point x="956" y="-7"/>
      <point x="889" y="43"/>
      <point x="889" y="145" type="curve" smooth="yes"/>
      <point x="889" y="263"/>
      <point x="970" y="396"/>
      <point x="1096" y="396" type="curve" smooth="yes"/>
      <point x="1178" y="396"/>
      <point x="1244" y="345"/>
    </contour>
    <contour>
      <point x="844" y="244" type="curve" smooth="yes"/>
      <point x="844" y="126"/>
      <point x="763" y="-7"/>
      <point x="636" y="-7" type="curve" smooth="yes"/>
      <point x="555" y="-7"/>
      <point x="489" y="43"/>
      <point x="489" y="145" type="curve" smooth="yes"/>
      <point x="489" y="263"/>
      <point x="570" y="396"/>
      <point x="696" y="396" type="curve" smooth="yes"/>
      <point x="777" y="396"/>
      <point x="844" y="345"/>
    </contour>
    <contour>
      <point x="824" y="720" type="line"/>
      <point x="488" y="349" type="line"/>
      <point x="202" y="0" type="line"/>
      <point x="103" y="0" type="line"/>
      <point x="439" y="371" type="line"/>
      <point x="725" y="720" type="line"/>
    </contour>
    <contour>
      <point x="438" y="576" type="curve" smooth="yes"/>
      <point x="438" y="458"/>
      <point x="357" y="324"/>
      <point x="231" y="324" type="curve" smooth="yes"/>
      <point x="149" y="324"/>
      <point x="83" y="375"/>
      <point x="83" y="476" type="curve" smooth="yes"/>
      <point x="83" y="594"/>
      <point x="164" y="727"/>
      <point x="290" y="727" type="curve" smooth="yes"/>
      <point x="371" y="727"/>
      <point x="438" y="678"/>
    </contour>
    <contour>
      <point x="1162" y="241" type="curve" smooth="yes"/>
      <point x="1162" y="296"/>
      <point x="1136" y="331"/>
      <point x="1092" y="331" type="curve" smooth="yes"/>
      <point x="1015" y="331"/>
      <point x="971" y="222"/>
      <point x="971" y="147" type="curve" smooth="yes"/>
      <point x="971" y="92"/>
      <point x="998" y="58"/>
      <point x="1041" y="58" type="curve" smooth="yes"/>
      <point x="1118" y="58"/>
      <point x="1162" y="167"/>
    </contour>
    <contour>
      <point x="762" y="241" type="curve" smooth="yes"/>
      <point x="762" y="296"/>
      <point x="735" y="331"/>
      <point x="692" y="331" type="curve" smooth="yes"/>
      <point x="615" y="331"/>
      <point x="571" y="222"/>
      <point x="571" y="147" type="curve" smooth="yes"/>
      <point x="571" y="92"/>
      <point x="597" y="58"/>
      <point x="640" y="58" type="curve" smooth="yes"/>
      <point x="718" y="58"/>
      <point x="762" y="167"/>
    </contour>
    <contour>
      <point x="356" y="573" type="curve" smooth="yes"/>
      <point x="356" y="628"/>
      <point x="329" y="662"/>
      <point x="286" y="662" type="curve" smooth="yes"/>
      <point x="209" y="662"/>
      <point x="165" y="553"/>
      <point x="165" y="479" type="curve" smooth="yes"/>
      <point x="165" y="424"/>
      <point x="191" y="389"/>
      <point x="235" y="389" type="curve" smooth="yes"/>
      <point x="312" y="389"/>
      <point x="356" y="498"/>
    </contour>
  </outline>
</glyph>
<glyph name="guilsinglleft" format="1">
  <advance width="276"/>
  <unicode hex="2039"/>
  <outline>
    <contour>
      <point x="293" y="450" type="line"/>
      <point x="136" y="259" type="line"/>
      <point x="197" y="74" type="line"/>
      <point x="138" y="74" type="line"/>
      <point x="23" y="262" type="line"/>
      <point x="226" y="450" type="line"/>
    </contour>
  </outline>
</glyph>
<glyph name="guilsinglright" format="1">
  <advance width="276"/>
  <unicode hex="203A"/>
  <outline>
    <contour>
      <point x="253" y="262" type="line"/>
      <point x="50" y="74" type="line"/>
      <point x="-17" y="74" type="line"/>
      <point x="140" y="265" type="line"/>
      <point x="80" y="450" type="line"/>
      <point x="138" y="450" type="line"/>
    </contour>
  </outline>
</glyph>
<glyph name="minus" format="1">
  <advance width="600"/>
  <unicode hex="2212"/>
  <outline>
    <contour>
      <point x="582" y="307" type="line"/>
      <point x="65" y="307" type="line"/>
      <point x="65" y="403" type="line"/>
      <point x="582" y="403" type="line"/>
    </contour>
  </outline>
</glyph>
<glyph name="radical" format="1">
  <advance width="582"/>
  <unicode hex="221A"/>
  <outline>
    <contour>
      <point x="663" y="720" type="line"/>
      <point x="254" y="-3" type="line"/>
      <point x="138" y="-3" type="line"/>
      <point x="55" y="340" type="line"/>
      <point x="163" y="340" type="line"/>
      <point x="213" y="88" type="line"/>
      <point x="541" y="720" type="line"/>
    </contour>
  </outline>
</glyph>
<glyph name="apple" format="1">
  <advance width="500"/>
  <unicode hex="F8FF"/>
  <outline>
    <contour>
      <point x="535" y="519" type="line"/>
      <point x="345" y="503" type="line"/>
      <point x="452" y="354" type="line"/>
      <point x="451" y="349" type="line"/>
      <point x="272" y="214" type="line"/>
      <point x="448" y="176" type="line"/>
      <point x="390" y="78" type="line"/>
      <point x="249" y="178" type="line"/>
      <point x="236" y="0" type="line"/>
      <point x="129" y="0" type="line"/>
      <point x="209" y="179" type="line"/>
      <point x="22" y="102" type="line"/>
      <point x="14" y="201" type="line"/>
      <point x="204" y="217" type="line"/>
      <point x="97" y="366" type="line"/>
      <point x="97" y="371" type="line"/>
      <point x="276" y="506" type="line"/>
      <point x="101" y="544" type="line"/>
      <point x="159" y="642" type="line"/>
      <point x="300" y="542" type="line"/>
      <point x="312" y="720" type="line"/>
      <point x="419" y="720" type="line"/>
      <point x="339" y="541" type="line"/>
      <point x="526" y="618" type="line"/>
    </contour>
    <contour>
      <point x="355" y="354" type="line"/>
      <point x="307" y="492" type="line"/>
      <point x="194" y="366" type="line"/>
      <point x="241" y="228" type="line"/>
    </contour>
  </outline>
</glyph>
<glyph name="I.salt" format="1">
  <advance width="271"/>
  <outline>
    <contour>
      <point x="307" y="720" type="line"/>
      <point x="127" y="0" type="line"/>
      <point x="13" y="0" type="line"/>
      <point x="192" y="720" type="line"/>
    </contour>
  </outline>
</glyph>
<glyph name="a.salt" format="1">
  <advance width="501"/>
  <outline>
    <contour>
      <point x="462" y="418" type="curve" smooth="yes"/>
      <point x="462" y="399"/>
      <point x="460" y="378"/>
      <point x="454" y="353" type="curve" smooth="yes"/>
      <point x="392" y="107" type="line" smooth="yes"/>
      <point x="390" y="98"/>
      <point x="388" y="86"/>
      <point x="388" y="78" type="curve" smooth="yes"/>
      <point x="388" y="57"/>
      <point x="400" y="43"/>
      <point x="429" y="39" type="curve"/>
      <point x="417" y="-5" type="line"/>
      <point x="328" y="-2"/>
      <point x="291" y="30"/>
      <point x="291" y="80" type="curve"/>
      <point x="284" y="80" type="line"/>
      <point x="218" y="20"/>
      <point x="174" y="-7"/>
      <point x="116" y="-7" type="curve" smooth="yes"/>
      <point x="48" y="-7"/>
      <point x="1" y="32"/>
      <point x="1" y="104" type="curve" smooth="yes"/>
      <point x="1" y="220"/>
      <point x="101" y="306"/>
      <point x="342" y="310" type="curve"/>
      <point x="354" y="356" type="line" smooth="yes"/>
      <point x="358" y="370"/>
      <point x="359" y="384"/>
      <point x="359" y="395" type="curve" smooth="yes"/>
      <point x="359" y="435"/>
      <point x="335" y="455"/>
      <point x="283" y="455" type="curve" smooth="yes"/>
      <point x="235" y="455"/>
      <point x="197" y="444"/>
      <point x="130" y="416" type="curve"/>
      <point x="114" y="483" type="line"/>
      <point x="184" y="514"/>
      <point x="242" y="530"/>
      <point x="311" y="530" type="curve" smooth="yes"/>
      <point x="414" y="530"/>
      <point x="462" y="490"/>
    </contour>
    <contour>
      <point x="332" y="265" type="line"/>
      <point x="160" y="262"/>
      <point x="104" y="195"/>
      <point x="104" y="127" type="curve" smooth="yes"/>
      <point x="104" y="83"/>
      <point x="131" y="59"/>
      <point x="175" y="59" type="curve" smooth="yes"/>
      <point x="210" y="59"/>
      <point x="248" y="81"/>
      <point x="298" y="129" type="curve"/>
    </contour>
  </outline>
</glyph>
<glyph name="bullet" format="1">
  <advance width="393"/>
  <outline>
    <contour>
      <point x="372" y="373" type="curve" smooth="yes"/>
      <point x="372" y="290"/>
      <point x="307" y="225"/>
      <point x="224" y="225" type="curve" smooth="yes"/>
      <point x="141" y="225"/>
      <point x="76" y="290"/>
      <point x="76" y="373" type="curve" smooth="yes"/>
      <point x="76" y="456"/>
      <point x="141" y="521"/>
      <point x="224" y="521" type="curve" smooth="yes"/>
      <point x="307" y="521"/>
      <point x="372" y="456"/>
    </contour>
  </outline>
</glyph>
